<svg width="16" height="16" viewBox="0 0 16 16" fill="none" xmlns="http://www.w3.org/2000/svg">
<rect width="16" height="16" fill="white"/>
<path fill-rule="evenodd" clip-rule="evenodd" d="M8.03341 12.0668C10.2612 12.0668 12.0668 10.2609 12.0668 8.03345C12.0668 5.80598 10.2612 4 8.03341 4C5.80567 4 4 5.80598 4 8.03345C4 10.2609 5.80567 12.0668 8.03341 12.0668Z" stroke="black" stroke-width="0.621354" stroke-miterlimit="22.9256"/>
<path d="M9.3518 8.66983L9.91618 8.81272C9.79826 9.27477 9.58481 9.62795 9.27839 9.87173C8.97111 10.1149 8.59609 10.2357 8.1519 10.2357C7.69269 10.2357 7.31993 10.1427 7.03222 9.95621C6.74478 9.76884 6.52538 9.49812 6.37571 9.14408C6.22604 8.7889 6.15064 8.40819 6.15064 8.00141C6.15064 7.55808 6.23483 7.17144 6.40463 6.8412C6.57414 6.51097 6.81508 6.26008 7.12859 6.08858C7.44097 5.9168 7.7851 5.8318 8.16097 5.8318C8.5873 5.8318 8.94532 5.93977 9.23587 6.1569C9.52642 6.37403 9.72881 6.6785 9.84276 7.07224L9.28831 7.20317C9.18909 6.89278 9.04651 6.66775 8.85801 6.52601C8.67064 6.384 8.43451 6.31369 8.14907 6.31369C7.82166 6.31369 7.54784 6.3919 7.32872 6.54866C7.10875 6.70626 6.95398 6.9166 6.86554 7.18136C6.77653 7.44527 6.73174 7.71796 6.73174 7.99859C6.73174 8.36143 6.78447 8.67694 6.88935 8.94764C6.99565 9.21722 7.15921 9.41959 7.38229 9.55338C7.60538 9.68746 7.84633 9.7538 8.10626 9.7538C8.42176 9.7538 8.6885 9.66255 8.90762 9.48113C9.12673 9.29858 9.27442 9.02784 9.3518 8.66983Z" fill="black"/>
</svg>
