<svg width="1004" height="140" viewBox="0 0 1004 140" fill="none" xmlns="http://www.w3.org/2000/svg">
<path fill-rule="evenodd" clip-rule="evenodd" d="M0 121.681L72.0407 121.321L83.8414 17.3061L93.1478 121.98L98.9163 71.064L105.62 121.894L164.361 121.488L170.105 85.8683L177.488 121.461L186.866 50.0533L191.477 121.871L199.319 71.9399L206.912 121.791H333.549L337.028 104.287L340.268 121.367L345.406 81.1902L350.657 121.224L356.218 93.8778L357.914 121.522L660.131 121.274L663.42 56.2445L668.672 121.791L678.508 20.9129L685.95 121.92L701.532 0L712.297 121.545L724.281 121.429L729.719 45.7242L737.82 121.269L788.846 121.566L794.019 75.3268L796.781 121.521L803.487 60.8287L809.958 121.791L814.318 102.689L818.125 121.791H870.367L874.39 87.4692L879.923 121.791L887.969 19.1926L897.022 121.791H901.549L906.578 92.2145L912.613 121.791H944.226L954.278 54.7679L964.269 122.446L1004 5.73507L1003.76 121.791V140H0V121.681Z" fill="#8CDBB2"/>
</svg>
