<svg width="90" height="100" viewBox="0 0 90 100" fill="none" xmlns="http://www.w3.org/2000/svg">
<path fill-rule="evenodd" clip-rule="evenodd" d="M45.0004 88.2834C62.121 88.2834 76.0002 74.4042 76.0002 57.2834C76.0002 40.1627 62.121 26.2834 45.0004 26.2834C27.8795 26.2834 14.0002 40.1627 14.0002 57.2834C14.0002 74.4042 27.8795 88.2834 45.0004 88.2834Z" fill="white"/>
<path d="M14.9014 22.2692C15.5919 22.968 16.1899 23.6786 16.7625 24.4088C17.4834 25.3278 18.0379 26.113 18.6204 26.8557C19.0348 27.3844 19.7129 27.341 20.2804 26.8959C20.8603 26.4413 21.2722 25.7723 21.9528 25.2385C22.8066 26.3792 23.4469 28.0525 24.0096 28.7702C24.1281 28.9213 24.3863 28.8609 24.5626 28.7226C24.714 28.6038 24.8161 28.4224 24.7324 28.2642C24.3795 26.8534 23.6734 25.7193 22.8443 24.662C21.8669 23.4153 20.7129 22.3072 19.7355 21.0611C19.3112 20.5197 19.0663 19.9998 18.7307 19.5718C18.6224 19.4332 18.3607 19.5159 18.1722 19.6639C18.0206 19.7827 17.9344 19.9321 17.988 20.0525C18.2612 20.7124 18.6354 21.2935 19.0598 21.8347C19.8104 22.7917 20.7019 23.6174 21.4803 24.5318C20.9255 24.967 20.4867 25.5756 20.0204 25.9412C19.7806 26.1292 19.5368 26.259 19.2868 26.2519C18.757 25.732 18.31 25.1878 17.8658 24.6211C16.5327 22.9215 16.0757 22.365 15.5785 21.8605C15.4405 21.6842 15.1596 21.7414 14.9957 21.8701C14.8571 21.979 14.7931 22.1306 14.9014 22.2692ZM28.3727 15.3028C28.5206 16.6561 28.4081 18.0552 28.3055 19.3975C28.2967 20.5577 28.358 21.2836 28.5516 23.212C28.1292 21.9112 27.6334 20.6436 27.0855 19.4159C26.5577 18.2327 25.906 17.0866 25.1293 16.014C25.0153 15.8371 24.8887 15.7887 24.7713 15.8411C24.5227 15.9519 24.3395 16.524 24.4634 16.8018C25.2514 17.7814 25.8362 18.8172 26.3057 19.8691C26.912 21.2281 27.3347 22.5286 27.7358 23.8215C28.0292 24.4788 28.7004 25.984 29.2566 25.7357C30.222 25.3051 29.3852 22.9977 29.4207 22.2111C29.2863 21.3599 29.2367 20.3836 29.284 17.384C29.5825 18.2494 29.9264 19.0596 30.2912 19.8779C30.637 20.6523 32.3973 24.5973 33.2894 24.1991C33.5822 24.0684 33.7773 23.7189 33.6596 23.4558C33.4314 22.9444 32.6797 22.439 31.8063 20.4811C30.9519 18.5669 30.3354 16.4769 29.4683 14.5338C29.227 13.9929 28.9141 13.6068 28.6216 13.7375C28.3877 13.8418 28.0405 14.5576 28.138 14.7767L28.3727 15.3028ZM40.4633 21.9826C40.5016 21.092 40.4449 20.2127 40.34 19.3388C40.0583 16.9877 39.4777 15.1075 39.2186 12.9469C39.1976 12.7723 39.1925 12.5954 39.1877 12.4188C39.9925 12.403 40.7813 12.3891 41.5767 12.2938C42.1332 12.2269 42.6701 12.1303 43.2137 11.9525C43.4306 11.878 43.5811 11.5217 43.5508 11.2674C43.5355 11.1401 43.459 11.0367 43.2838 11.0576C42.6471 11.2629 42.0802 11.3791 41.5076 11.448C39.9168 11.6385 38.3025 11.4939 36.7117 11.6844C36.1235 11.755 35.5543 11.8556 34.9973 12.0509C34.7104 12.2145 34.5224 12.3979 34.5587 12.7C34.5777 12.8588 34.768 12.9651 35.0064 12.9364C35.5636 12.7406 36.1785 12.6187 36.7669 12.5481C37.244 12.4908 37.7409 12.4636 38.222 12.4381C38.199 12.6501 38.2256 12.8727 38.2503 13.079C38.5187 15.3192 39.148 17.7412 39.4071 19.902C39.4947 20.6325 39.5505 21.367 39.4845 22.1646C39.5077 22.3551 39.7116 22.4436 39.9505 22.4149C40.1892 22.3866 40.4443 22.2267 40.4633 21.9826ZM47.9045 17.7015C47.635 19.0068 47.3498 20.3099 46.9595 21.681C46.9328 21.9036 47.0666 22.0002 47.2412 22.0212C47.4958 22.0518 47.8387 21.8832 47.875 21.5815C48.2781 20.3729 48.5536 19.1491 48.8453 17.9271L49.4976 18.0054C49.7025 18.0459 49.8562 18.1128 50.0305 18.1338C50.3171 18.1681 50.5875 18.2007 50.8934 18.2049C50.8747 19.5726 50.6326 21.1872 51.6017 22.2539C51.6437 22.3072 51.7038 22.3466 51.7991 22.3582C52.1012 22.3945 52.525 22.0906 52.5573 21.8208C52.569 21.7253 52.5446 21.6578 52.4587 21.5671C51.6602 20.8267 51.8914 19.8394 51.8875 18.2596C52.068 18.233 52.1627 18.1153 52.18 17.9725C52.2027 17.782 52.0842 17.558 51.8815 17.5016C51.7443 14.472 51.5397 12.5458 50.3664 11.1642C50.2984 11.0593 50.1906 11.0145 50.0954 11.0029C49.825 10.9706 49.5378 11.2099 49.4363 11.52C48.8414 13.2536 48.4454 15.0752 48.0633 16.9149C47.7432 16.8925 47.5476 17.0464 47.525 17.2369C47.5037 17.4118 47.6259 17.6037 47.9045 17.7015ZM50.0668 12.7236C50.6544 13.8739 50.7593 15.2883 50.8715 17.4449C50.6646 17.42 50.4563 17.4115 50.2494 17.3866C49.8202 17.3352 49.4083 17.2695 49.0163 17.1742C49.3567 15.6841 49.647 14.2041 50.0668 12.7236ZM59.1376 24.2895C59.5966 23.525 59.9665 22.725 60.2914 21.9072C61.1659 19.7067 61.5531 17.7772 62.3564 15.7552C62.4213 15.5917 62.5012 15.4338 62.5812 15.2762C63.2961 15.6464 63.9959 16.0106 64.7406 16.3066C65.2613 16.5135 65.7792 16.6847 66.3419 16.7879C66.5681 16.8259 66.8706 16.5846 66.965 16.3468C67.0123 16.2277 66.9941 16.0999 66.8306 16.035C66.1729 15.9114 65.619 15.743 65.0833 15.5301C63.5945 14.9386 62.245 14.0408 60.7559 13.4492C60.2052 13.2304 59.6572 13.0473 59.0744 12.9532C58.7442 12.9597 58.4916 13.0314 58.3794 13.314C58.3204 13.4626 58.4366 13.6468 58.6597 13.7355C59.2434 13.8294 59.8415 14.0156 60.3925 14.2344C60.839 14.4119 61.2889 14.625 61.7231 14.8323C61.6021 15.0077 61.5193 15.2161 61.4425 15.4091C60.6097 17.5059 60.0065 19.9343 59.2026 21.9569C58.931 22.6406 58.6294 23.3127 58.1912 23.9822C58.1203 24.1605 58.2575 24.336 58.4808 24.4247C58.7042 24.5134 59.0047 24.4947 59.1376 24.2895ZM71.7011 18.8685C70.0853 21.1161 68.5869 23.3101 67.0089 25.5055C66.6168 26.0512 66.2152 26.6099 65.8005 27.1593C65.4215 26.9456 65.1086 26.9969 64.9779 27.1786C64.8378 27.3733 64.9093 27.7404 65.3254 28.0394C65.6769 28.292 66.1157 28.5874 66.4927 28.8587C68.1969 30.0835 70.9785 30.6051 72.3511 28.6954C73.509 27.0844 72.221 24.7595 70.9071 23.8152C70.5822 23.5814 70.2285 23.3866 69.8381 23.2438C70.7775 21.9095 71.6821 20.5693 72.5991 19.2381C72.7111 19.0825 72.6408 18.9334 72.4973 18.8305C72.2762 18.6715 71.8785 18.6216 71.7011 18.8685ZM69.4404 23.8249C69.6987 23.9318 69.9513 24.0741 70.1987 24.2518C71.4865 25.1776 72.4832 27.0567 71.512 28.4077C70.5318 29.7717 68.069 29.0262 66.9372 28.2126C66.7682 28.091 66.5993 27.9694 66.4485 27.822C67.4752 26.5306 68.4693 25.1759 69.4404 23.8249Z" fill="black"/>
<path fill-rule="evenodd" clip-rule="evenodd" d="M35.8082 74.5085H56.6055V84.2169H35.8082V74.5085Z" stroke="black" stroke-width="1.33342" stroke-miterlimit="22.9256"/>
<path d="M40.1064 77.2037H52.3073" stroke="black" stroke-width="0.288" stroke-miterlimit="22.9256"/>
<path d="M41.8199 78.2486H49.357" stroke="black" stroke-width="0.288" stroke-miterlimit="22.9256"/>
<path d="M38.5428 79.2358H53.592" stroke="black" stroke-width="0.288" stroke-miterlimit="22.9256"/>
<path d="M38.5428 80.2809H52.3073" stroke="black" stroke-width="0.288" stroke-miterlimit="22.9256"/>
<path d="M40.1064 81.4423H53.8709" stroke="black" stroke-width="0.288" stroke-miterlimit="22.9256"/>
<path d="M42.716 82.6037H48.9445" stroke="black" stroke-width="0.288" stroke-miterlimit="22.9256"/>
<path d="M41.2718 70.3778C41.4056 70.1992 41.7378 70.125 42.0136 70.2114C42.2894 70.2978 42.4045 70.5132 42.2707 70.6918L41.2718 70.3778ZM38.9286 73.5042L41.2718 70.3778L42.2707 70.6918L39.9276 73.8182L38.9286 73.5042ZM39.9276 73.8182C39.7938 73.9968 39.4616 74.071 39.1858 73.9846C38.9099 73.8982 38.7948 73.6828 38.9286 73.5042L39.9276 73.8182ZM38.7073 73.7995L38.9286 73.5042L39.9276 73.8182L39.7062 74.1135L39.2067 74.3162L38.7073 73.7995ZM39.7062 74.1135C39.5724 74.2921 39.2399 74.3663 38.9641 74.2799C38.6883 74.1935 38.5735 73.9781 38.7073 73.7995L39.7062 74.1135ZM37.25 73.5969H39.2067V74.3162H37.25V73.5969ZM37.25 74.3162C36.9436 74.3162 36.6947 74.1549 36.6947 73.9565C36.6947 73.7582 36.9436 73.5969 37.25 73.5969V74.3162Z" fill="black"/>
<path d="M51.21 70.3783L50.2173 70.6912C50.0832 70.5152 50.1963 70.3021 50.4704 70.216C50.7445 70.1298 51.0759 70.2024 51.21 70.3783ZM53.5531 73.4501L52.5604 73.763L50.2173 70.6912L51.21 70.3783L53.5531 73.4501ZM52.5604 73.763L53.5531 73.4501C53.6872 73.6261 53.5741 73.8392 53.3 73.9254C53.0259 74.0115 52.6945 73.939 52.5604 73.763ZM53.7745 73.7403L53.2782 74.2519L52.7818 74.0532L52.5604 73.763L53.5531 73.4501L53.7745 73.7403ZM52.7818 74.0532L53.7745 73.7403C53.9086 73.9163 53.7955 74.1294 53.5214 74.2156C53.2473 74.3017 52.9159 74.2292 52.7818 74.0532ZM55.2349 73.5417V74.2519H53.2782V73.5417H55.2349ZM55.2349 74.2519V73.5417C55.5399 73.5417 55.7876 73.7006 55.7876 73.8968C55.7876 74.0929 55.5399 74.2519 55.2349 74.2519Z" fill="black"/>
<path fill-rule="evenodd" clip-rule="evenodd" d="M45.7258 72.1127C55.5153 72.1127 63.4514 64.1864 63.4514 54.4089C63.4514 44.6313 55.5153 36.7051 45.7258 36.7051C35.9361 36.7051 28.0002 44.6313 28.0002 54.4089C28.0002 64.1864 35.9361 72.1127 45.7258 72.1127Z" fill="black"/>
<path fill-rule="evenodd" clip-rule="evenodd" d="M38.3368 49.8062C39.0248 49.8062 39.5823 49.2493 39.5823 48.5624C39.5823 47.8754 39.0248 47.3182 38.3368 47.3182C37.6485 47.3182 37.0909 47.8754 37.0909 48.5624C37.0909 49.2493 37.6485 49.8062 38.3368 49.8062Z" stroke="black" stroke-width="1.11987" stroke-miterlimit="22.9256"/>
<path fill-rule="evenodd" clip-rule="evenodd" d="M38.3368 49.8062C39.0248 49.8062 39.5823 49.2493 39.5823 48.5624C39.5823 47.8754 39.0248 47.3182 38.3368 47.3182C37.6485 47.3182 37.0909 47.8754 37.0909 48.5624C37.0909 49.2493 37.6485 49.8062 38.3368 49.8062Z" fill="white"/>
<path fill-rule="evenodd" clip-rule="evenodd" d="M52.8224 49.8062C53.5106 49.8062 54.0682 49.2493 54.0682 48.5624C54.0682 47.8754 53.5106 47.3182 52.8224 47.3182C52.1344 47.3182 51.5768 47.8754 51.5768 48.5624C51.5768 49.2493 52.1344 49.8062 52.8224 49.8062Z" stroke="black" stroke-width="1.11987" stroke-miterlimit="22.9256"/>
<path fill-rule="evenodd" clip-rule="evenodd" d="M52.8224 49.8062C53.5106 49.8062 54.0682 49.2493 54.0682 48.5624C54.0682 47.8754 53.5106 47.3182 52.8224 47.3182C52.1344 47.3182 51.5768 47.8754 51.5768 48.5624C51.5768 49.2493 52.1344 49.8062 52.8224 49.8062Z" fill="white"/>
<path fill-rule="evenodd" clip-rule="evenodd" d="M52.8224 48.9545C53.0392 48.9545 53.215 48.7788 53.215 48.5626C53.215 48.3461 53.0392 48.1707 52.8224 48.1707C52.6058 48.1707 52.4301 48.3461 52.4301 48.5626C52.4301 48.7788 52.6058 48.9545 52.8224 48.9545Z" stroke="black" stroke-width="1.11987" stroke-miterlimit="22.9256"/>
<path fill-rule="evenodd" clip-rule="evenodd" d="M52.8224 48.9545C53.0392 48.9545 53.215 48.7788 53.215 48.5626C53.215 48.3461 53.0392 48.1707 52.8224 48.1707C52.6058 48.1707 52.4301 48.3461 52.4301 48.5626C52.4301 48.7788 52.6058 48.9545 52.8224 48.9545Z" fill="white"/>
<path fill-rule="evenodd" clip-rule="evenodd" d="M38.3368 48.9545C38.5534 48.9545 38.7291 48.7788 38.7291 48.5626C38.7291 48.3461 38.5534 48.1707 38.3368 48.1707C38.12 48.1707 37.9442 48.3461 37.9442 48.5626C37.9442 48.7788 38.12 48.9545 38.3368 48.9545Z" stroke="black" stroke-width="1.11987" stroke-miterlimit="22.9256"/>
<path fill-rule="evenodd" clip-rule="evenodd" d="M38.3368 48.9545C38.5534 48.9545 38.7291 48.7788 38.7291 48.5626C38.7291 48.3461 38.5534 48.1707 38.3368 48.1707C38.12 48.1707 37.9442 48.3461 37.9442 48.5626C37.9442 48.7788 38.12 48.9545 38.3368 48.9545Z" fill="white"/>
<path fill-rule="evenodd" clip-rule="evenodd" d="M45.7258 52.278L47.4357 51.0424L49.1458 49.8068H45.7258H42.3058L44.0157 51.0424L45.7258 52.278Z" fill="#FF6600"/>
<path d="M42.0782 31.9264L45.0861 36.474L44.3853 36.9361L41.3775 32.3885L41.9824 31.8238L42.0782 31.9264ZM41.3775 32.3885L40.0112 30.3228L41.9824 31.8238L41.3775 32.3885ZM45.4713 35.5355L41.4733 32.4911L41.9824 31.8238L45.9804 34.8682L45.979 35.5363L45.4713 35.5355ZM45.979 35.5363L45.7247 35.7285L45.4713 35.5355L45.979 35.5363ZM50.0098 32.4919L45.979 35.5363L45.4727 34.8674L49.5036 31.8229L50.1037 32.3936L50.0098 32.4919ZM49.5036 31.8229L51.542 30.2834L50.1037 32.3936L49.5036 31.8229ZM46.3101 36.4689L49.4097 31.9213L50.1037 32.3936L47.004 36.9412L46.657 37.1243L46.3101 36.4689ZM47.004 36.9412L46.8793 37.1243H46.657L47.004 36.9412ZM44.7357 36.2858H46.657V37.1243H44.7357L44.3853 36.9361L44.7357 36.2858ZM44.7357 37.1243H44.5098L44.3853 36.9361L44.7357 37.1243Z" fill="black"/>
<path fill-rule="evenodd" clip-rule="evenodd" d="M44.7357 36.7051L41.7278 32.1575L45.7259 35.2019L49.7567 32.1575L46.657 36.7051H44.7357Z" fill="black"/>
<path fill-rule="evenodd" clip-rule="evenodd" d="M33.1429 51.6154C34.3419 51.6154 35.3139 50.6448 35.3139 49.4477C35.3139 48.2503 34.3419 47.2797 33.1429 47.2797C31.9438 47.2797 30.9718 48.2503 30.9718 49.4477C30.9718 50.6448 31.9438 51.6154 33.1429 51.6154Z" stroke="black" stroke-width="1.11987" stroke-miterlimit="22.9256"/>
<path fill-rule="evenodd" clip-rule="evenodd" d="M33.1429 51.6154C34.3419 51.6154 35.3139 50.6448 35.3139 49.4477C35.3139 48.2503 34.3419 47.2797 33.1429 47.2797C31.9438 47.2797 30.9718 48.2503 30.9718 49.4477C30.9718 50.6448 31.9438 51.6154 33.1429 51.6154Z" fill="white"/>
<path fill-rule="evenodd" clip-rule="evenodd" d="M58.283 51.6154C59.482 51.6154 60.4543 50.6448 60.4543 49.4477C60.4543 48.2503 59.482 47.2797 58.283 47.2797C57.0839 47.2797 56.1119 48.2503 56.1119 49.4477C56.1119 50.6448 57.0839 51.6154 58.283 51.6154Z" stroke="black" stroke-width="1.11987" stroke-miterlimit="22.9256"/>
<path fill-rule="evenodd" clip-rule="evenodd" d="M58.283 51.6154C59.482 51.6154 60.4543 50.6448 60.4543 49.4477C60.4543 48.2503 59.482 47.2797 58.283 47.2797C57.0839 47.2797 56.1119 48.2503 56.1119 49.4477C56.1119 50.6448 57.0839 51.6154 58.283 51.6154Z" fill="white"/>
<path d="M52.7671 75.387H53.8527C53.8527 75.6427 53.6095 75.8504 53.3099 75.8504C53.0102 75.8504 52.7671 75.6427 52.7671 75.387ZM52.7671 73.8975L53.3099 73.4341L53.8527 73.8975V75.387H52.7671V73.8975ZM53.8527 73.8975H52.7671C52.7671 73.6419 53.0102 73.4341 53.3099 73.4341C53.6095 73.4341 53.8527 73.6419 53.8527 73.8975ZM51.1473 74.3609V73.4341H53.3099V74.3609H51.1473ZM51.1473 73.4341V74.3609C50.8477 74.3609 50.6045 74.1531 50.6045 73.8975C50.6045 73.6419 50.8477 73.4341 51.1473 73.4341Z" fill="black"/>
<path d="M39.5923 75.8598C39.5923 76.112 39.4052 76.3169 39.175 76.3169C38.9449 76.3169 38.7578 76.112 38.7578 75.8598H39.5923ZM39.5923 73.9287V75.8598H38.7578V73.9287L39.175 73.4716L39.5923 73.9287ZM38.7578 73.9287C38.7578 73.6765 38.9449 73.4716 39.175 73.4716C39.4052 73.4716 39.5923 73.6765 39.5923 73.9287H38.7578ZM41.3376 74.3858H39.175V73.4716H41.3376V74.3858ZM41.3376 73.4716C41.5677 73.4716 41.7548 73.6765 41.7548 73.9287C41.7548 74.1809 41.5677 74.3858 41.3376 74.3858V73.4716Z" fill="black"/>
<path fill-rule="evenodd" clip-rule="evenodd" d="M45.7258 54.457H30.3609C30.3609 64.2346 37.24 72.1608 45.7258 72.1608C54.2116 72.1608 61.0907 64.2346 61.0907 54.457H45.7258Z" fill="#FFFFCC"/>
</svg>
