<svg width="90" height="100" viewBox="0 0 90 100" fill="none" xmlns="http://www.w3.org/2000/svg">
<path d="M13.1576 24.3891C10.7635 26.6835 12.5428 29.7208 14.3583 31.6149C16.4838 33.8328 19.9687 33.4405 21.981 31.5118C22.4552 31.0574 22.8183 30.51 23.0465 29.9147C23.1293 29.7463 23.0766 29.5757 22.9547 29.4484C22.7886 29.2752 22.4621 29.1893 22.2886 29.3554C21.8841 29.7435 21.6658 30.3958 21.2381 30.8057C19.5378 32.435 16.8997 32.9469 15.1002 31.3474C13.4312 29.4898 11.9129 26.9335 13.995 24.9382C14.6308 24.3288 15.293 24.6029 15.4667 24.4365C15.5937 24.3146 15.5538 24.0649 15.3766 23.88C14.8233 23.3023 13.5737 23.99 13.1576 24.3891ZM25.5685 27.9302C24.721 24.8588 23.8417 21.732 23.7532 18.5041C26.2744 20.8237 28.2464 23.7326 30.7695 26.0882C30.9362 26.2512 31.1012 26.2492 31.2123 26.1857C31.407 26.0746 31.489 25.7333 31.3464 25.483C31.3149 25.4275 31.2832 25.3716 31.2234 25.3322C28.4227 22.6192 26.2151 19.329 23.2291 16.9057C23.1101 16.8266 22.9431 16.7929 22.832 16.8561C22.5539 17.0148 22.6877 17.5092 22.6638 17.7255C22.7177 21.3782 23.6835 25.0451 24.7394 28.5133C24.749 28.5632 24.759 28.6128 24.7748 28.6406C24.8542 28.7794 25.0189 28.7775 25.1858 28.6822C25.4225 28.5473 25.6553 28.212 25.5685 27.9302ZM35.1034 12.2546C35.1287 13.791 34.973 15.3942 34.8591 16.9692C33.5398 15.9223 32.3085 14.6521 31.0006 13.5857C30.898 13.5143 30.7772 13.4979 30.6536 13.5322C30.3602 13.613 30.1108 13.914 30.1748 14.1456C30.1918 14.2074 30.2202 14.249 30.2834 14.2981C31.8022 15.4059 33.1138 16.7869 34.4427 17.9304C34.6414 18.1081 34.7715 18.3377 34.848 18.6155C35.1927 19.8645 34.3916 21.9613 34.7536 23.272C34.8727 23.704 35.138 24.2449 35.6323 24.1085C35.8639 24.0445 36.0769 23.8528 36.0131 23.6218C35.9141 23.3834 35.8432 23.1873 35.788 22.9866C35.401 21.5831 35.9252 18.9656 35.9833 17.6716C36.0408 16.0125 36.519 13.59 36.102 12.0786C36.0337 11.8317 35.788 11.7835 35.5564 11.8473C35.3401 11.9071 35.1494 12.0593 35.1034 12.2546ZM49.0879 21.6373C49.2803 21.631 49.3699 21.4357 49.3636 21.2441C49.3149 19.7409 48.2924 16.8765 48.2193 14.6218C48.1842 13.5344 48.4693 12.4366 48.4342 11.3654C48.4296 11.2214 48.3622 11.1117 48.1861 11.1173C48.0101 11.123 47.806 11.2574 47.7652 11.4827C47.5909 12.529 47.5285 13.5874 47.5631 14.6431C47.6325 16.7858 48.0708 18.9327 48.619 21.0122C47.8882 21.2118 47.105 21.2693 46.336 21.2943L45.8558 21.3099C45.841 19.3732 45.9893 17.5117 45.9298 15.6885C45.8875 14.3772 45.7336 13.0857 45.3237 11.8181C45.2707 11.6599 45.1882 11.5984 45.0924 11.6015C44.8843 11.6083 44.6689 11.8875 44.6763 12.1114C45.07 13.3791 45.2058 14.6076 45.2455 15.839C45.3044 17.6458 45.1392 19.4759 45.1508 21.3167C44.1729 21.3002 43.6121 21.3184 43.052 21.3365C42.9381 20.796 42.889 20.2693 42.8715 19.7256C42.8454 18.9262 42.8842 18.1405 42.8587 17.357C42.7935 15.3421 42.8808 13.0982 43.143 11.2965C43.1374 11.1207 43.1172 10.9935 42.9089 11.0003C42.7008 11.0068 42.4499 11.1749 42.393 11.4008C42.2132 13.2637 42.1787 15.1697 42.1263 17.0123C42.0758 18.4228 41.8448 19.6947 41.8856 20.9581C41.9018 21.4539 41.9808 21.9156 42.2516 22.355C42.3043 22.4973 42.4341 22.5571 42.5625 22.5531C42.7065 22.5483 42.8474 22.4477 42.9063 22.2858C45.0017 22.1537 47.105 22.2617 49.0879 21.6373ZM54.5335 18.5464C54.0683 19.7953 53.5881 21.0397 52.9937 22.3357C52.9336 22.5517 53.0509 22.6674 53.2207 22.7147C53.4674 22.7836 53.8322 22.6694 53.9138 22.3768C54.4961 21.2435 54.9547 20.076 55.4292 18.9126L56.0616 19.0889C56.2578 19.1604 56.3995 19.2499 56.5691 19.297C56.8468 19.3747 57.109 19.4478 57.4106 19.4988C57.1842 20.8475 56.6994 22.4066 57.4951 23.6085C57.5283 23.6674 57.5813 23.7156 57.6743 23.7414C57.9671 23.8234 58.4322 23.5875 58.5051 23.3256C58.5309 23.2332 58.5173 23.1629 58.4461 23.06C57.7698 22.2068 58.1485 21.2662 58.3849 19.704C58.5677 19.7052 58.6791 19.6034 58.7177 19.4648C58.7693 19.2797 58.6865 19.0407 58.4943 18.9537C58.82 15.9388 58.9107 14.0039 57.9614 12.4598C57.9101 12.3459 57.8103 12.2849 57.7182 12.2591C57.4557 12.186 57.1357 12.379 56.988 12.6699C56.1362 14.2927 55.4675 16.0329 54.8099 17.7929C54.4972 17.7223 54.2803 17.8445 54.2288 18.0293C54.1814 18.1988 54.273 18.4072 54.5335 18.5464ZM57.4279 13.9554C57.8336 15.1816 57.7222 16.5956 57.505 18.7442C57.3043 18.6884 57.0997 18.6479 56.899 18.592C56.4823 18.4758 56.0854 18.3482 55.7124 18.1943C56.2756 16.7736 56.7879 15.3548 57.4279 13.9554ZM64.6923 26.6277C65.2604 25.9403 65.7453 25.2044 66.1887 24.4441C67.3815 22.3987 68.0525 20.5488 69.1486 18.6691C69.2373 18.5172 69.3396 18.3732 69.4423 18.2292C70.0939 18.7017 70.7318 19.1666 71.4237 19.57C71.9078 19.8526 72.3943 20.0992 72.9351 20.2851C73.1531 20.3563 73.4885 20.163 73.6172 19.9419C73.6818 19.8313 73.6829 19.7023 73.531 19.6136C72.8991 19.3934 72.3767 19.1442 71.8787 18.8536C70.4948 18.0463 69.294 16.9573 67.9102 16.1502C67.3982 15.8518 66.884 15.5887 66.3213 15.4087C65.9939 15.3662 65.7334 15.3993 65.5801 15.6621C65.4998 15.8002 65.5874 15.9994 65.7946 16.1205C66.3573 16.3005 66.9214 16.5737 67.4334 16.8725C67.8484 17.1146 68.2613 17.3924 68.6605 17.6622C68.5142 17.8176 68.4011 18.0112 68.2965 18.1906C67.1598 20.1394 66.2011 22.4511 65.1047 24.3308C64.7339 24.9666 64.3357 25.5859 63.8022 26.1826C63.7055 26.3485 63.8149 26.5421 64.0227 26.6634C64.2302 26.7844 64.5302 26.8108 64.6923 26.6277ZM77.8294 22.965C75.9294 24.9779 74.1523 26.9531 72.2965 28.9192C71.835 29.4079 71.3628 29.9079 70.8789 30.3975C70.5317 30.1353 70.2144 30.1443 70.0611 30.3073C69.8964 30.4817 69.9182 30.8547 70.2913 31.2068C70.6056 31.5035 71.001 31.8548 71.3389 32.1737C72.8648 33.6145 75.5526 34.5015 77.1669 32.7913C78.529 31.3485 77.5612 28.8727 76.3849 27.7621C76.0937 27.4874 75.7692 27.2473 75.4013 27.0537C76.5102 25.8561 77.5845 24.6482 78.6705 23.4512C78.8023 23.3114 78.7521 23.1544 78.6242 23.0333C78.4261 22.8463 78.0381 22.7442 77.8294 22.965ZM74.9298 27.5767C75.1716 27.717 75.4033 27.8919 75.6247 28.1008C76.7781 29.1896 77.5159 31.1844 76.3736 32.3945C75.2204 33.6159 72.879 32.5492 71.8653 31.5926C71.7142 31.4497 71.5626 31.3068 71.433 31.1407C72.6225 29.9972 73.7878 28.7865 74.9298 27.5767Z" fill="black"/>
<path fill-rule="evenodd" clip-rule="evenodd" d="M45.8046 89.2969C62.9255 89.2969 76.8047 75.4176 76.8047 58.2969C76.8047 41.1759 62.9255 27.2969 45.8046 27.2969C28.6839 27.2969 14.8047 41.1759 14.8047 58.2969C14.8047 75.4176 28.6839 89.2969 45.8046 89.2969Z" fill="white"/>
<path fill-rule="evenodd" clip-rule="evenodd" d="M25.8067 64.1448L23.2814 74.2852C23.2703 74.2787 23.2595 74.2722 23.2485 74.2654C19.6499 72.0708 17.8779 65.7609 19.2907 60.1715C20.7038 54.5821 24.7664 51.83 28.365 54.0246L25.8067 64.1448Z" fill="black"/>
<path fill-rule="evenodd" clip-rule="evenodd" d="M65.2054 64.1448L67.7308 74.2852C67.7419 74.2787 67.7526 74.2722 67.7637 74.2654C71.3623 72.0708 73.1342 65.7609 71.7214 60.1715C70.3084 54.5821 66.2457 51.83 62.6472 54.0246L65.2054 64.1448Z" fill="black"/>
<path fill-rule="evenodd" clip-rule="evenodd" d="M45.9488 79.4902C57.0328 79.4902 66.0186 70.5157 66.0186 59.445C66.0186 48.3745 57.0328 39.4 45.9488 39.4C34.8645 39.4 25.8787 48.3745 25.8787 59.445C25.8787 70.5157 34.8645 79.4902 45.9488 79.4902Z" fill="black"/>
<path fill-rule="evenodd" clip-rule="evenodd" d="M37.5824 54.2336C38.3614 54.2336 38.993 53.6031 38.993 52.8251C38.993 52.0475 38.3614 51.4169 37.5824 51.4169C36.8035 51.4169 36.1719 52.0475 36.1719 52.8251C36.1719 53.6031 36.8035 54.2336 37.5824 54.2336Z" stroke="black" stroke-width="0.685606" stroke-miterlimit="22.9256"/>
<path fill-rule="evenodd" clip-rule="evenodd" d="M37.5824 54.2336C38.3614 54.2336 38.993 53.6031 38.993 52.8251C38.993 52.0475 38.3614 51.4169 37.5824 51.4169C36.8035 51.4169 36.1719 52.0475 36.1719 52.8251C36.1719 53.6031 36.8035 54.2336 37.5824 54.2336Z" fill="white"/>
<path fill-rule="evenodd" clip-rule="evenodd" d="M53.9839 54.2336C54.7629 54.2336 55.3944 53.6031 55.3944 52.8251C55.3944 52.0475 54.7629 51.4169 53.9839 51.4169C53.205 51.4169 52.5734 52.0475 52.5734 52.8251C52.5734 53.6031 53.205 54.2336 53.9839 54.2336Z" stroke="black" stroke-width="0.685606" stroke-miterlimit="22.9256"/>
<path fill-rule="evenodd" clip-rule="evenodd" d="M53.9839 54.2336C54.7629 54.2336 55.3944 53.6031 55.3944 52.8251C55.3944 52.0475 54.7629 51.4169 53.9839 51.4169C53.205 51.4169 52.5734 52.0475 52.5734 52.8251C52.5734 53.6031 53.205 54.2336 53.9839 54.2336Z" fill="white"/>
<path fill-rule="evenodd" clip-rule="evenodd" d="M45.9673 59.5325H31.8964C31.8964 70.6032 38.1961 79.5777 45.9673 79.5777C53.7384 79.5777 60.0382 70.6032 60.0382 59.5325H45.9673Z" fill="white"/>
<path fill-rule="evenodd" clip-rule="evenodd" d="M53.984 53.2692C54.2295 53.2692 54.4284 53.0705 54.4284 52.8254C54.4284 52.5805 54.2295 52.3818 53.984 52.3818C53.7385 52.3818 53.5398 52.5805 53.5398 52.8254C53.5398 53.0705 53.7385 53.2692 53.984 53.2692Z" stroke="black" stroke-width="0.685606" stroke-miterlimit="22.9256"/>
<path fill-rule="evenodd" clip-rule="evenodd" d="M53.984 53.2692C54.2295 53.2692 54.4284 53.0705 54.4284 52.8254C54.4284 52.5805 54.2295 52.3818 53.984 52.3818C53.7385 52.3818 53.5398 52.5805 53.5398 52.8254C53.5398 53.0705 53.7385 53.2692 53.984 53.2692Z" fill="white"/>
<path fill-rule="evenodd" clip-rule="evenodd" d="M37.5825 53.2692C37.8279 53.2692 38.0266 53.0705 38.0266 52.8254C38.0266 52.5805 37.8279 52.3818 37.5825 52.3818C37.337 52.3818 37.1379 52.5805 37.1379 52.8254C37.1379 53.0705 37.337 53.2692 37.5825 53.2692Z" stroke="black" stroke-width="0.685606" stroke-miterlimit="22.9256"/>
<path fill-rule="evenodd" clip-rule="evenodd" d="M37.5825 53.2692C37.8279 53.2692 38.0266 53.0705 38.0266 52.8254C38.0266 52.5805 37.8279 52.3818 37.5825 52.3818C37.337 52.3818 37.1379 52.5805 37.1379 52.8254C37.1379 53.0705 37.337 53.2692 37.5825 53.2692Z" fill="white"/>
<path fill-rule="evenodd" clip-rule="evenodd" d="M45.9486 57.0326L47.8849 55.6335L49.821 54.2343H45.9486H42.0765L44.0126 55.6335L45.9486 57.0326Z" fill="#FF6600"/>
<path fill-rule="evenodd" clip-rule="evenodd" d="M37.6686 80.2536C39.8073 80.2536 41.5409 79.8076 41.5409 79.2575C41.5409 78.7071 39.8073 78.261 37.6686 78.261C35.5301 78.261 33.7964 78.7071 33.7964 79.2575C33.7964 79.8076 35.5301 80.2536 37.6686 80.2536Z" fill="#FF9900"/>
<path fill-rule="evenodd" clip-rule="evenodd" d="M54.1529 80.2536C56.2914 80.2536 58.0251 79.8076 58.0251 79.2575C58.0251 78.7071 56.2914 78.261 54.1529 78.261C52.0142 78.261 50.2805 78.7071 50.2805 79.2575C50.2805 79.8076 52.0142 80.2536 54.1529 80.2536Z" fill="#FF9900"/>
<path fill-rule="evenodd" clip-rule="evenodd" d="M29.7565 51.4166V47.5439C27.6149 47.5439 25.879 49.2779 25.879 51.4166C25.879 53.5557 27.6149 55.2893 29.7565 55.2893V51.4166Z" fill="#CCFFCC" stroke="black" stroke-width="1.33304" stroke-miterlimit="22.9256"/>
<path fill-rule="evenodd" clip-rule="evenodd" d="M62.0244 51.4166V55.2893C64.166 55.2893 65.9019 53.5557 65.9019 51.4166C65.9019 49.2779 64.166 47.5439 62.0244 47.5439V51.4166Z" fill="#CCFFCC" stroke="black" stroke-width="1.33304" stroke-miterlimit="22.9256"/>
<path fill-rule="evenodd" clip-rule="evenodd" d="M45.91 59.5328C55.2561 59.5328 62.8325 53.2099 62.8325 45.4103C62.8325 37.6108 55.2561 31.2878 45.91 31.2878C36.5636 31.2878 28.9872 37.6108 28.9872 45.4103C28.9872 53.2099 36.5636 59.5328 45.91 59.5328ZM45.91 57.5727C53.959 57.5727 60.484 52.1273 60.484 45.4103C60.484 38.6934 53.959 33.248 45.91 33.248C37.8607 33.248 31.3357 38.6934 31.3357 45.4103C31.3357 52.1273 37.8607 57.5727 45.91 57.5727Z" fill="black" stroke="black" stroke-width="1.33304" stroke-miterlimit="22.9256"/>
</svg>
