<svg width="125" height="100" viewBox="0 0 125 100" fill="none" xmlns="http://www.w3.org/2000/svg">
<path fill-rule="evenodd" clip-rule="evenodd" d="M43.8163 34.142L41.3989 44.0354C41.3885 44.0287 41.378 44.0224 41.3675 44.016C37.9231 41.8748 36.2272 35.7187 37.5795 30.2653C38.9318 24.8121 42.8203 22.1271 46.2648 24.268L43.8163 34.142Z" fill="#1A1A1A"/>
<path fill-rule="evenodd" clip-rule="evenodd" d="M81.1837 34.142L83.6008 44.0354C83.6115 44.0287 83.622 44.0224 83.6325 44.016C87.0769 41.8748 88.7728 35.7187 87.4205 30.2653C86.0682 24.8121 82.1797 22.1271 78.735 24.268L81.1837 34.142Z" fill="#1A1A1A"/>
<path fill-rule="evenodd" clip-rule="evenodd" d="M62.752 49.1135C73.3614 49.1135 81.9621 40.3577 81.9621 29.5567C81.9621 18.7558 73.3614 10 62.752 10C52.1427 10 43.542 18.7558 43.542 29.5567C43.542 40.3577 52.1427 49.1135 62.752 49.1135Z" fill="black"/>
<path fill-rule="evenodd" clip-rule="evenodd" d="M54.744 24.4723C55.4898 24.4723 56.0941 23.857 56.0941 23.0982C56.0941 22.3393 55.4898 21.7241 54.744 21.7241C53.9985 21.7241 53.394 22.3393 53.394 23.0982C53.394 23.857 53.9985 24.4723 54.744 24.4723Z" stroke="black" stroke-width="0.657259" stroke-miterlimit="22.9256"/>
<path fill-rule="evenodd" clip-rule="evenodd" d="M54.744 24.4723C55.4898 24.4723 56.0941 23.857 56.0941 23.0982C56.0941 22.3393 55.4898 21.7241 54.744 21.7241C53.9985 21.7241 53.394 22.3393 53.394 23.0982C53.394 23.857 53.9985 24.4723 54.744 24.4723Z" fill="white"/>
<path fill-rule="evenodd" clip-rule="evenodd" d="M70.4431 24.4723C71.1888 24.4723 71.7931 23.857 71.7931 23.0982C71.7931 22.3393 71.1888 21.7241 70.4431 21.7241C69.6976 21.7241 69.093 22.3393 69.093 23.0982C69.093 23.857 69.6976 24.4723 70.4431 24.4723Z" stroke="black" stroke-width="0.657259" stroke-miterlimit="22.9256"/>
<path fill-rule="evenodd" clip-rule="evenodd" d="M70.4431 24.4723C71.1888 24.4723 71.7931 23.857 71.7931 23.0982C71.7931 22.3393 71.1888 21.7241 70.4431 21.7241C69.6976 21.7241 69.093 22.3393 69.093 23.0982C69.093 23.857 69.6976 24.4723 70.4431 24.4723Z" fill="white"/>
<path fill-rule="evenodd" clip-rule="evenodd" d="M62.7699 29.6421H49.3017C49.3017 40.443 55.3316 49.1988 62.7699 49.1988C70.2081 49.1988 76.2378 40.443 76.2378 29.6421H62.7699Z" fill="white"/>
<path fill-rule="evenodd" clip-rule="evenodd" d="M70.4431 23.5314C70.678 23.5314 70.8685 23.3376 70.8685 23.0985C70.8685 22.8594 70.678 22.6655 70.4431 22.6655C70.2081 22.6655 70.0177 22.8594 70.0177 23.0985C70.0177 23.3376 70.2081 23.5314 70.4431 23.5314Z" stroke="black" stroke-width="0.657259" stroke-miterlimit="22.9256"/>
<path fill-rule="evenodd" clip-rule="evenodd" d="M70.4431 23.5314C70.678 23.5314 70.8685 23.3376 70.8685 23.0985C70.8685 22.8594 70.678 22.6655 70.4431 22.6655C70.2081 22.6655 70.0177 22.8594 70.0177 23.0985C70.0177 23.3376 70.2081 23.5314 70.4431 23.5314Z" fill="white"/>
<path fill-rule="evenodd" clip-rule="evenodd" d="M54.744 23.5314C54.9789 23.5314 55.1694 23.3376 55.1694 23.0985C55.1694 22.8594 54.9789 22.6655 54.744 22.6655C54.5091 22.6655 54.3186 22.8594 54.3186 23.0985C54.3186 23.3376 54.5091 23.5314 54.744 23.5314Z" stroke="black" stroke-width="0.657259" stroke-miterlimit="22.9256"/>
<path fill-rule="evenodd" clip-rule="evenodd" d="M54.744 23.5314C54.9789 23.5314 55.1694 23.3376 55.1694 23.0985C55.1694 22.8594 54.9789 22.6655 54.744 22.6655C54.5091 22.6655 54.3186 22.8594 54.3186 23.0985C54.3186 23.3376 54.5091 23.5314 54.744 23.5314Z" fill="white"/>
<path fill-rule="evenodd" clip-rule="evenodd" d="M62.752 27.2029L64.6053 25.838L66.4583 24.4729H62.752H59.0458L60.8988 25.838L62.752 27.2029Z" fill="#FF6600"/>
<path fill-rule="evenodd" clip-rule="evenodd" d="M70.3723 49.8873C72.4288 49.8873 74.0958 49.4501 74.0958 48.9107C74.0958 48.3713 72.4288 47.9341 70.3723 47.9341C68.3161 47.9341 66.6491 48.3713 66.6491 48.9107C66.6491 49.4501 68.3161 49.8873 70.3723 49.8873Z" fill="#FF9900"/>
<path fill-rule="evenodd" clip-rule="evenodd" d="M54.4132 49.8674C56.4603 49.8674 58.1197 49.4322 58.1197 48.8954C58.1197 48.3583 56.4603 47.9231 54.4132 47.9231C52.3663 47.9231 50.7069 48.3583 50.7069 48.8954C50.7069 49.4322 52.3663 49.8674 54.4132 49.8674Z" fill="#FF9900"/>
<path fill-rule="evenodd" clip-rule="evenodd" d="M102.692 44.0752C109.49 44.0752 115 38.4651 115 31.545C115 24.6249 109.49 19.0151 102.692 19.0151C95.8947 19.0151 90.3844 24.6249 90.3844 31.545C90.3844 38.4651 95.8947 44.0752 102.692 44.0752Z" fill="black"/>
<path fill-rule="evenodd" clip-rule="evenodd" d="M97.5615 28.2876C98.0392 28.2876 98.4267 27.8933 98.4267 27.407C98.4267 26.921 98.0392 26.5267 97.5615 26.5267C97.084 26.5267 96.6965 26.921 96.6965 27.407C96.6965 27.8933 97.084 28.2876 97.5615 28.2876Z" stroke="black" stroke-width="0.778582" stroke-miterlimit="22.9256"/>
<path fill-rule="evenodd" clip-rule="evenodd" d="M97.5615 28.2876C98.0392 28.2876 98.4267 27.8933 98.4267 27.407C98.4267 26.921 98.0392 26.5267 97.5615 26.5267C97.084 26.5267 96.6965 26.921 96.6965 27.407C96.6965 27.8933 97.084 28.2876 97.5615 28.2876Z" fill="white"/>
<path fill-rule="evenodd" clip-rule="evenodd" d="M107.62 28.2876C108.097 28.2876 108.485 27.8933 108.485 27.407C108.485 26.921 108.097 26.5267 107.62 26.5267C107.142 26.5267 106.755 26.921 106.755 27.407C106.755 27.8933 107.142 28.2876 107.62 28.2876Z" stroke="black" stroke-width="0.778582" stroke-miterlimit="22.9256"/>
<path fill-rule="evenodd" clip-rule="evenodd" d="M107.62 28.2876C108.097 28.2876 108.485 27.8933 108.485 27.407C108.485 26.921 108.097 26.5267 107.62 26.5267C107.142 26.5267 106.755 26.921 106.755 27.407C106.755 27.8933 107.142 28.2876 107.62 28.2876Z" fill="white"/>
<path fill-rule="evenodd" clip-rule="evenodd" d="M107.62 27.6845C107.771 27.6845 107.893 27.5605 107.893 27.4071C107.893 27.2539 107.771 27.1299 107.62 27.1299C107.47 27.1299 107.347 27.2539 107.347 27.4071C107.347 27.5605 107.47 27.6845 107.62 27.6845Z" stroke="black" stroke-width="0.779338" stroke-miterlimit="22.9256"/>
<path fill-rule="evenodd" clip-rule="evenodd" d="M107.62 27.6845C107.771 27.6845 107.893 27.5605 107.893 27.4071C107.893 27.2539 107.771 27.1299 107.62 27.1299C107.47 27.1299 107.347 27.2539 107.347 27.4071C107.347 27.5605 107.47 27.6845 107.62 27.6845Z" fill="white"/>
<path fill-rule="evenodd" clip-rule="evenodd" d="M97.5619 27.6845C97.7127 27.6845 97.8349 27.5605 97.8349 27.4071C97.8349 27.2539 97.7127 27.1299 97.5619 27.1299C97.4113 27.1299 97.2892 27.2539 97.2892 27.4071C97.2892 27.5605 97.4113 27.6845 97.5619 27.6845Z" stroke="black" stroke-width="0.779338" stroke-miterlimit="22.9256"/>
<path fill-rule="evenodd" clip-rule="evenodd" d="M97.5619 27.6845C97.7127 27.6845 97.8349 27.5605 97.8349 27.4071C97.8349 27.2539 97.7127 27.1299 97.5619 27.1299C97.4113 27.1299 97.2892 27.2539 97.2892 27.4071C97.2892 27.5605 97.4113 27.6845 97.5619 27.6845Z" fill="white"/>
<path fill-rule="evenodd" clip-rule="evenodd" d="M102.692 30.037L103.88 29.1625L105.067 28.288H102.692H100.318L101.505 29.1625L102.692 30.037Z" fill="#FF6600"/>
<path d="M100.16 15.6326L102.248 18.8516L101.761 19.1787L99.6729 15.9597L100.093 15.5602L100.16 15.6326ZM99.6729 15.9597L98.7242 14.4976L100.093 15.5602L99.6729 15.9597ZM102.515 18.1869L99.7394 16.0321L100.093 15.5602L102.869 17.7149L102.868 18.1878L102.515 18.1869ZM102.868 18.1878L102.691 18.3236L102.515 18.1869L102.868 18.1878ZM105.667 16.033L102.868 18.1878L102.516 17.7141L105.315 15.5593L105.732 15.9632L105.667 16.033ZM105.315 15.5593L106.731 14.4694L105.732 15.9632L105.315 15.5593ZM103.098 18.8481L105.25 15.6291L105.732 15.9632L103.58 19.1822L103.339 19.312L103.098 18.8481ZM103.58 19.1822L103.493 19.312H103.339L103.58 19.1822ZM102.005 18.7183H103.339V19.312H102.005L101.761 19.1787L102.005 18.7183ZM102.005 19.312H101.848L101.761 19.1787L102.005 19.312Z" fill="black"/>
<path fill-rule="evenodd" clip-rule="evenodd" d="M102.005 19.0144L99.9163 15.7961L102.692 17.9504L105.491 15.7961L103.339 19.0144H102.005Z" fill="black"/>
<path fill-rule="evenodd" clip-rule="evenodd" d="M93.9551 29.5681C94.7878 29.5681 95.4628 28.8811 95.4628 28.0337C95.4628 27.1863 94.7878 26.4993 93.9551 26.4993C93.1227 26.4993 92.4477 27.1863 92.4477 28.0337C92.4477 28.8811 93.1227 29.5681 93.9551 29.5681Z" stroke="black" stroke-width="0.778582" stroke-miterlimit="22.9256"/>
<path fill-rule="evenodd" clip-rule="evenodd" d="M93.9551 29.5681C94.7878 29.5681 95.4628 28.8811 95.4628 28.0337C95.4628 27.1863 94.7878 26.4993 93.9551 26.4993C93.1227 26.4993 92.4477 27.1863 92.4477 28.0337C92.4477 28.8811 93.1227 29.5681 93.9551 29.5681Z" fill="white"/>
<path fill-rule="evenodd" clip-rule="evenodd" d="M111.411 29.5681C112.244 29.5681 112.919 28.8811 112.919 28.0337C112.919 27.1863 112.244 26.4993 111.411 26.4993C110.579 26.4993 109.904 27.1863 109.904 28.0337C109.904 28.8811 110.579 29.5681 111.411 29.5681Z" stroke="black" stroke-width="0.778582" stroke-miterlimit="22.9256"/>
<path fill-rule="evenodd" clip-rule="evenodd" d="M111.411 29.5681C112.244 29.5681 112.919 28.8811 112.919 28.0337C112.919 27.1863 112.244 26.4993 111.411 26.4993C110.579 26.4993 109.904 27.1863 109.904 28.0337C109.904 28.8811 110.579 29.5681 111.411 29.5681Z" fill="white"/>
<path fill-rule="evenodd" clip-rule="evenodd" d="M102.692 31.5791H92.0234C92.0234 38.4992 96.8001 44.1093 102.692 44.1093C108.585 44.1093 113.361 38.4992 113.361 31.5791H102.692Z" fill="#FFFFCC"/>
<path fill-rule="evenodd" clip-rule="evenodd" d="M22.3078 43.9555C29.1053 43.9555 34.6159 38.3454 34.6159 31.4253C34.6159 24.5052 29.1053 18.8951 22.3078 18.8951C15.5106 18.8951 10 24.5052 10 31.4253C10 38.3454 15.5106 43.9555 22.3078 43.9555Z" fill="black"/>
<path fill-rule="evenodd" clip-rule="evenodd" d="M17.1773 28.1678C17.6548 28.1678 18.0423 27.7736 18.0423 27.2873C18.0423 26.801 17.6548 26.407 17.1773 26.407C16.6996 26.407 16.3121 26.801 16.3121 27.2873C16.3121 27.7736 16.6996 28.1678 17.1773 28.1678Z" stroke="black" stroke-width="0.778582" stroke-miterlimit="22.9256"/>
<path fill-rule="evenodd" clip-rule="evenodd" d="M17.1773 28.1678C17.6548 28.1678 18.0423 27.7736 18.0423 27.2873C18.0423 26.801 17.6548 26.407 17.1773 26.407C16.6996 26.407 16.3121 26.801 16.3121 27.2873C16.3121 27.7736 16.6996 28.1678 17.1773 28.1678Z" fill="white"/>
<path fill-rule="evenodd" clip-rule="evenodd" d="M27.2356 28.1678C27.7134 28.1678 28.1005 27.7736 28.1005 27.2873C28.1005 26.801 27.7134 26.407 27.2356 26.407C26.7579 26.407 26.3707 26.801 26.3707 27.2873C26.3707 27.7736 26.7579 28.1678 27.2356 28.1678Z" stroke="black" stroke-width="0.778582" stroke-miterlimit="22.9256"/>
<path fill-rule="evenodd" clip-rule="evenodd" d="M27.2356 28.1678C27.7134 28.1678 28.1005 27.7736 28.1005 27.2873C28.1005 26.801 27.7134 26.407 27.2356 26.407C26.7579 26.407 26.3707 26.801 26.3707 27.2873C26.3707 27.7736 26.7579 28.1678 27.2356 28.1678Z" fill="white"/>
<path fill-rule="evenodd" clip-rule="evenodd" d="M22.3078 31.4253H10C10 38.3454 15.5106 43.9555 22.3078 43.9555C29.1053 43.9555 34.6159 38.3454 34.6159 31.4253H22.3078Z" fill="#FF0000"/>
<path fill-rule="evenodd" clip-rule="evenodd" d="M27.236 27.5649C27.3868 27.5649 27.509 27.4406 27.509 27.2874C27.509 27.1343 27.3868 27.0103 27.236 27.0103C27.0852 27.0103 26.963 27.1343 26.963 27.2874C26.963 27.4406 27.0852 27.5649 27.236 27.5649Z" stroke="black" stroke-width="0.779338" stroke-miterlimit="22.9256"/>
<path fill-rule="evenodd" clip-rule="evenodd" d="M27.236 27.5649C27.3868 27.5649 27.509 27.4406 27.509 27.2874C27.509 27.1343 27.3868 27.0103 27.236 27.0103C27.0852 27.0103 26.963 27.1343 26.963 27.2874C26.963 27.4406 27.0852 27.5649 27.236 27.5649Z" fill="white"/>
<path fill-rule="evenodd" clip-rule="evenodd" d="M17.1777 27.5649C17.3283 27.5649 17.4504 27.4406 17.4504 27.2874C17.4504 27.1343 17.3283 27.0103 17.1777 27.0103C17.0269 27.0103 16.9048 27.1343 16.9048 27.2874C16.9048 27.4406 17.0269 27.5649 17.1777 27.5649Z" stroke="black" stroke-width="0.779338" stroke-miterlimit="22.9256"/>
<path fill-rule="evenodd" clip-rule="evenodd" d="M17.1777 27.5649C17.3283 27.5649 17.4504 27.4406 17.4504 27.2874C17.4504 27.1343 17.3283 27.0103 17.1777 27.0103C17.0269 27.0103 16.9048 27.1343 16.9048 27.2874C16.9048 27.4406 17.0269 27.5649 17.1777 27.5649Z" fill="white"/>
<path fill-rule="evenodd" clip-rule="evenodd" d="M22.3078 29.9172L23.4951 29.0427L24.6827 28.1682H22.3078H19.9332L21.1205 29.0427L22.3078 29.9172Z" fill="#4D4D4D"/>
<path d="M38.604 61.0165C38.604 60.0232 34.4135 59.8602 33.7416 59.8602C32.4459 59.8602 31.9022 60.6094 31.9022 61.684C31.9022 63.4265 31.6463 65.1687 31.6463 66.8787C31.6463 67.9371 31.7423 68.9792 32.0624 70.0051C31.4224 69.9237 30.8145 69.8747 30.1746 69.8747C29.5989 69.8747 28.9912 69.9237 28.3032 70.0051C27.9355 70.0864 27.6797 70.5099 27.6797 70.8518C27.6797 71.0797 27.8076 71.2589 28.0793 71.2589H28.1755C28.7512 71.2101 29.311 71.1775 29.8709 71.1775C33.07 71.1775 37.1328 71.8777 39.7557 71.8777C40.1876 71.8777 40.6996 71.6498 40.6996 71.2427C40.6996 71.0961 40.5875 70.9822 40.3316 70.9331C39.212 70.6726 38.1243 70.7378 37.0689 70.64C37.0689 70.0377 37.0524 69.4676 37.0524 68.914C37.0524 65.4457 38.604 62.0259 38.604 61.0165ZM33.2938 70.1842C32.8299 68.8978 32.67 67.4975 32.67 65.9667C32.67 64.5499 32.8141 63.003 32.9901 61.277C33.246 61.2605 33.4699 61.2444 33.7099 61.2444C34.8295 61.2444 35.821 61.4887 37.2446 61.7328C36.4609 64.2407 35.9492 66.5365 35.9492 68.8652C35.9492 69.435 35.9812 70.0051 36.061 70.5748C35.5012 70.5261 34.9572 70.4447 33.2938 70.1842ZM47.7215 70.64C48.2811 70.64 48.7449 70.803 49.2252 70.803C49.4811 70.803 49.6569 70.5748 49.6569 70.3469C49.6569 70.1516 49.5448 69.9725 49.2411 69.9073C48.7614 69.8259 48.281 69.7933 47.7855 69.7933C46.2659 69.7933 44.7305 70.1029 43.2748 70.2656C43.2748 68.4256 43.7549 65.7388 44.0747 65.6736C44.3464 65.6084 44.6985 65.5758 45.0503 65.5758C45.866 65.5758 46.5537 65.7711 47.2415 65.7711C47.4656 65.7711 47.6097 65.5923 47.6097 65.3967C47.6097 65.1849 47.4495 64.9734 47.1136 64.9082C46.6177 64.7943 45.3061 64.6313 44.4904 64.6313C44.2026 64.6313 43.9787 64.6477 43.8825 64.6965C43.8825 63.4101 43.7387 62.1724 43.5627 60.9351C44.8103 61.0164 46.106 60.9187 47.2415 61.1956C47.2735 61.2118 47.3216 61.2118 47.3536 61.2118C47.7535 61.2118 48.1373 60.8373 48.1373 60.5442C48.1373 60.4138 48.0413 60.2998 47.8333 60.2511C46.2659 60.0393 44.7305 60.1371 43.1628 59.9418C43.0988 59.8928 43.0187 59.8766 42.923 59.8766C42.5871 59.8766 42.299 60.2185 42.299 60.528C42.299 60.6907 42.3793 60.8373 42.6191 60.8534C42.8429 62.482 43.0351 64.1103 43.0351 65.6084C42.923 67.0088 42.507 68.3116 42.507 69.6142C42.507 69.9886 42.411 70.4121 42.411 70.754C42.411 71.1123 42.6191 71.3567 42.9709 71.3567C44.6823 71.3567 46.2342 70.64 47.7215 70.64ZM55.0471 70.9005C55.1912 70.0051 55.239 69.1096 55.239 68.2138C55.239 65.8037 54.8869 63.8336 54.8869 61.6188C54.8869 61.4397 54.9031 61.2605 54.9189 61.0817C55.7188 61.163 56.5025 61.2444 57.3023 61.2444C57.8621 61.2444 58.4061 61.2118 58.966 61.0978C59.1898 61.0491 59.3817 60.7069 59.3817 60.4464C59.3817 60.3163 59.3178 60.2023 59.1417 60.2023C58.4859 60.3324 57.91 60.3815 57.3343 60.3815C55.7349 60.3815 54.1514 60.0393 52.5517 60.0393C51.9601 60.0393 51.3842 60.0719 50.8082 60.2023C50.5045 60.3324 50.2965 60.4954 50.2965 60.8047C50.2965 60.9677 50.4725 61.0978 50.7123 61.0978C51.2882 60.9677 51.912 60.9186 52.5038 60.9186C52.9836 60.9186 53.4794 60.9512 53.9595 60.9838C53.9113 61.1956 53.9113 61.4235 53.9113 61.6353C53.9113 63.9311 54.2473 66.4551 54.2473 68.6699C54.2473 69.4188 54.2153 70.1678 54.0554 70.9657C54.0554 71.1611 54.2473 71.2753 54.4873 71.2753C54.7273 71.2753 54.999 71.1449 55.0471 70.9005ZM64.7881 59.7788C61.477 59.7788 60.6613 63.2635 60.6613 65.9341C60.6613 69.0605 63.4446 71.2263 66.2276 71.2263C66.8834 71.2263 67.523 71.0797 68.099 70.803C68.2751 70.7378 68.3549 70.5748 68.3549 70.396C68.3549 70.1516 68.1788 69.8585 67.9391 69.8585C67.3793 69.8585 66.7713 70.1842 66.1798 70.1842C63.8284 70.1842 61.5729 68.7022 61.3813 66.2598C61.4611 63.7196 62.1328 60.7721 65.0117 60.7721C65.8917 60.7721 66.1798 61.4397 66.4195 61.4397C66.5953 61.4397 66.7393 61.2282 66.7393 60.9677C66.7393 60.1533 65.3638 59.7788 64.7881 59.7788ZM71.0261 59.958C71.0742 60.5442 71.0901 61.0326 71.0901 61.5375C71.0901 63.638 70.7544 65.7388 70.7544 67.8555C70.7544 68.8 70.8183 69.7607 71.0261 70.7214C71.0742 70.9983 71.3779 71.1287 71.6499 71.1287C71.9219 71.1287 72.1299 71.0309 72.1299 70.7866C71.906 69.7281 71.8259 68.7513 71.8259 67.758C71.8259 66.8622 71.906 65.9667 71.9539 65.0709C72.3699 64.8921 72.7695 64.6639 73.1216 64.3872C75.0728 66.6181 76.1605 69.484 77.36 72.0404C77.4084 72.2034 77.5202 72.2521 77.6161 72.2521C77.904 72.2521 78.1918 71.9264 78.1918 71.6824C78.1918 71.5846 78.1598 71.4706 78.1281 71.3893C76.8803 68.7187 75.6966 65.9341 73.8731 63.7684C74.817 62.8726 75.6488 61.798 76.7045 61.049C76.8641 60.9351 76.9284 60.7559 76.9284 60.5929C76.9284 60.365 76.8163 60.1859 76.5604 60.1859C76.4806 60.1859 76.3685 60.2023 76.2726 60.2511C74.8809 61.4887 73.5374 63.3449 72.0178 64.0777C72.0818 63.3613 72.1138 62.6447 72.1138 61.9284C72.1138 61.2931 72.0818 60.6746 72.0017 60.0393C72.0017 59.7627 71.7138 59.5835 71.4421 59.5835C71.2183 59.5835 71.0261 59.6975 71.0261 59.958ZM84.766 61.1792C84.35 62.4982 83.6783 63.7519 83.0384 64.957C82.5584 66.0319 82.3186 66.7321 81.7107 68.6047C81.8548 67.2205 81.9187 65.8363 81.9187 64.4686C81.9187 63.1496 81.7908 61.8144 81.5191 60.4954C81.4868 60.2837 81.3909 60.1859 81.2627 60.1859C80.991 60.1859 80.5911 60.642 80.5911 60.9513C80.9112 62.1889 81.0229 63.3939 81.0229 64.5664C81.0229 66.0807 80.8792 67.4649 80.719 68.8326C80.719 69.5654 80.719 71.2427 81.3269 71.2427C82.3826 71.2427 82.5584 68.7513 82.9105 68.0346C83.1343 67.1879 83.4862 66.2598 84.7499 63.4914C84.6698 64.4198 84.6539 65.3153 84.6539 66.2272C84.6539 67.0901 84.6539 71.4868 85.6295 71.4868C85.9496 71.4868 86.2692 71.2427 86.2692 70.9496C86.2692 70.3795 85.7894 69.598 85.7894 67.4158C85.7894 65.2827 86.0773 63.0844 86.0773 60.9186C86.0773 60.3163 85.9496 59.8276 85.6295 59.8276C85.3737 59.8276 84.766 60.3489 84.766 60.5929V61.1792ZM95.3705 70.64C95.9301 70.64 96.394 70.803 96.8743 70.803C97.1301 70.803 97.3059 70.5748 97.3059 70.3469C97.3059 70.1516 97.1938 69.9725 96.8901 69.9073C96.4104 69.8259 95.9301 69.7933 95.4345 69.7933C93.9149 69.7933 92.3795 70.1029 90.9239 70.2656C90.9239 68.4256 91.4039 65.7388 91.7237 65.6736C91.9954 65.6084 92.3475 65.5758 92.6993 65.5758C93.515 65.5758 94.2028 65.7711 94.8905 65.7711C95.1147 65.7711 95.2587 65.5923 95.2587 65.3967C95.2587 65.1849 95.0985 64.9734 94.7626 64.9082C94.2667 64.7943 92.9552 64.6313 92.1395 64.6313C91.8516 64.6313 91.6278 64.6477 91.5315 64.6965C91.5315 63.4101 91.3878 62.1724 91.2117 60.9351C92.4593 61.0164 93.755 60.9187 94.8905 61.1956C94.9225 61.2118 94.9706 61.2118 95.0026 61.2118C95.4025 61.2118 95.7863 60.8373 95.7863 60.5442C95.7863 60.4138 95.6903 60.2998 95.4823 60.2511C93.9149 60.0393 92.3795 60.1371 90.8118 59.9418C90.7478 59.8928 90.6677 59.8766 90.5721 59.8766C90.2361 59.8766 89.948 60.2185 89.948 60.528C89.948 60.6907 90.0284 60.8373 90.2681 60.8534C90.492 62.482 90.6841 64.1103 90.6841 65.6084C90.5721 67.0088 90.156 68.3116 90.156 69.6142C90.156 69.9886 90.0601 70.4121 90.0601 70.754C90.0601 71.1123 90.2681 71.3567 90.6199 71.3567C92.3314 71.3567 93.8832 70.64 95.3705 70.64ZM39.2756 77.5267C35.9648 77.5267 35.1491 81.0114 35.1491 83.682C35.1491 86.8084 37.9321 88.9741 40.7151 88.9741C41.3709 88.9741 42.0108 88.8276 42.5868 88.5509C42.7626 88.4857 42.8427 88.3227 42.8427 88.1438C42.8427 87.8995 42.6666 87.6064 42.4269 87.6064C41.8668 87.6064 41.2591 87.9321 40.6673 87.9321C38.3162 87.9321 36.0607 86.4501 35.8688 84.0077C35.9489 81.4675 36.6206 78.52 39.4995 78.52C40.3795 78.52 40.6673 79.1875 40.907 79.1875C41.0831 79.1875 41.2271 78.9761 41.2271 78.7156C41.2271 77.9011 39.8516 77.5267 39.2756 77.5267ZM45.5136 77.7058C45.562 78.2921 45.5778 78.7805 45.5778 79.2853C45.5778 81.3859 45.2419 83.4867 45.2419 85.6034C45.2419 86.5479 45.3059 87.5086 45.5136 88.4693C45.562 88.7462 45.8657 88.8766 46.1377 88.8766C46.4094 88.8766 46.6174 88.7788 46.6174 88.5345C46.3935 87.476 46.3137 86.4991 46.3137 85.5059C46.3137 84.6101 46.3935 83.7146 46.4414 82.8188C46.8574 82.64 47.2573 82.4118 47.6094 82.1351C49.5606 84.366 50.6483 87.2319 51.8478 89.7883C51.8959 89.9513 52.008 90 52.1036 90C52.3915 90 52.6796 89.6743 52.6796 89.4302C52.6796 89.3324 52.6476 89.2185 52.6156 89.1371C51.368 86.4665 50.1844 83.682 48.3609 81.5163C49.3048 80.6205 50.1366 79.5459 51.192 78.7969C51.3519 78.683 51.4159 78.5038 51.4159 78.3408C51.4159 78.1129 51.3041 77.9337 51.0482 77.9337C50.9681 77.9337 50.8563 77.9502 50.7601 77.9989C49.3684 79.2366 48.0249 81.0928 46.5056 81.8255C46.5696 81.1092 46.6016 80.3926 46.6016 79.6763C46.6016 79.041 46.5696 78.4225 46.4895 77.7872C46.4895 77.5105 46.2014 77.3314 45.9297 77.3314C45.7058 77.3314 45.5136 77.4453 45.5136 77.7058ZM55.5427 84.6265C55.4309 85.9781 55.3027 87.3294 55.0788 88.7624C55.0788 88.9906 55.2229 89.0719 55.3989 89.0719C55.6548 89.0719 55.9746 88.8602 55.9746 88.5509C56.2305 87.2807 56.3584 86.0104 56.5022 84.7405H57.1582C57.366 84.7566 57.5262 84.8057 57.7022 84.8057C57.9901 84.8057 58.2618 84.8057 58.5658 84.7731C58.7098 86.157 58.6617 87.8181 59.7494 88.7788C59.7975 88.8276 59.8615 88.8602 59.9571 88.8602C60.2614 88.8602 60.6449 88.5019 60.6449 88.2252C60.6449 88.1274 60.6129 88.0622 60.5172 87.9808C59.6373 87.3294 59.7494 86.3035 59.5575 84.7079C59.7332 84.6591 59.8133 84.5287 59.8133 84.3822C59.8133 84.1869 59.6693 83.9751 59.4613 83.9425C58.9657 80.8974 58.5338 78.9761 57.2061 77.722C57.1263 77.6245 57.0145 77.5919 56.9182 77.5919C56.6463 77.5919 56.3904 77.8685 56.3264 78.1943C55.9426 80.0181 55.7666 81.9072 55.6064 83.8121C55.2869 83.8285 55.1108 84.0077 55.1108 84.203C55.1108 84.3822 55.2549 84.5613 55.5427 84.6265ZM57.0943 79.3341C57.814 80.4252 58.0857 81.842 58.454 84.0077C58.2459 84.0077 58.0379 84.0239 57.8299 84.0239C57.398 84.0239 56.9822 84.0077 56.5826 83.9587C56.7422 82.4118 56.8543 80.8813 57.0943 79.3341ZM66.9791 83.405C67.1231 83.3563 67.2669 83.3401 67.411 83.3401C68.6104 83.3401 69.7301 84.9845 69.7301 86.043C69.7301 87.4111 67.9068 88.0786 66.8511 88.0786C65.4275 88.0786 63.8598 87.3459 63.572 85.8639C63.5561 85.6034 63.4123 85.4733 63.2524 85.4733C63.0124 85.4733 62.7246 85.7664 62.7246 86.3526C62.9804 88.274 64.9316 89.2185 66.803 89.2185C68.7387 89.2185 70.642 87.9808 70.642 85.9129C70.642 84.3983 69.5062 82.7701 68.1947 82.249C69.2025 81.5976 70.226 80.9136 70.226 79.8228C70.226 78.5852 69.2184 77.5593 68.0667 77.5593C67.1551 77.5593 66.1954 78.0967 65.7954 79.041C65.8274 79.4645 66.0833 79.7576 66.4673 79.7576C66.6754 79.7576 66.8992 79.6598 66.9791 79.4157C67.1231 78.9435 67.4749 78.569 67.9708 78.4386C68.6266 78.4874 69.0743 79.1388 69.0743 79.7412C69.0743 81.0114 66.5791 81.679 66.5791 82.6887C66.5791 82.9005 66.6912 83.1445 66.9791 83.405ZM74.4329 77.7058C74.481 78.2921 74.4969 78.7805 74.4969 79.2853C74.4969 81.3859 74.1609 83.4867 74.1609 85.6034C74.1609 86.5479 74.2252 87.5086 74.4329 88.4693C74.481 88.7462 74.7847 88.8766 75.0567 88.8766C75.3287 88.8766 75.5364 88.7788 75.5364 88.5345C75.3126 87.476 75.2327 86.4991 75.2327 85.5059C75.2327 84.6101 75.3126 83.7146 75.3607 82.8188C75.7764 82.64 76.1764 82.4118 76.5285 82.1351C78.4797 84.366 79.5673 87.2319 80.7668 89.7883C80.8149 89.9513 80.927 90 81.0227 90C81.3108 90 81.5986 89.6743 81.5986 89.4302C81.5986 89.3324 81.5666 89.2185 81.5349 89.1371C80.2871 86.4665 79.1034 83.682 77.2799 81.5163C78.2238 80.6205 79.0556 79.5459 80.111 78.7969C80.2709 78.683 80.3349 78.5038 80.3349 78.3408C80.3349 78.1129 80.2231 77.9337 79.9673 77.9337C79.8872 77.9337 79.7754 77.9502 79.6794 77.9989C78.2875 79.2366 76.9442 81.0928 75.4246 81.8255C75.4886 81.1092 75.5206 80.3926 75.5206 79.6763C75.5206 79.041 75.4886 78.4225 75.4085 77.7872C75.4085 77.5105 75.1207 77.3314 74.8487 77.3314C74.6248 77.3314 74.4329 77.4453 74.4329 77.7058ZM88.1728 78.927C87.7568 80.246 87.0851 81.4998 86.4452 82.7049C85.9652 83.7798 85.7255 84.48 85.1175 86.3526C85.2616 84.9684 85.3256 83.5842 85.3256 82.2164C85.3256 80.8974 85.1976 79.5623 84.9256 78.2433C84.8937 78.0315 84.7977 77.9337 84.6695 77.9337C84.3978 77.9337 83.9979 78.3899 83.9979 78.6991C84.318 79.9368 84.4298 81.1418 84.4298 82.3142C84.4298 83.8285 84.286 85.2127 84.1258 86.5805C84.1258 87.3133 84.1258 88.9906 84.7337 88.9906C85.7894 88.9906 85.9652 86.4991 86.317 85.7825C86.5409 84.9358 86.893 84.0077 88.1567 81.2393C88.0766 82.1677 88.0607 83.0632 88.0607 83.9751C88.0607 84.838 88.0607 89.2346 89.0363 89.2346C89.3564 89.2346 89.676 88.9906 89.676 88.6975C89.676 88.1274 89.1962 87.3459 89.1962 85.1637C89.1962 83.0306 89.4841 80.8323 89.4841 78.6665C89.4841 78.0641 89.3564 77.5754 89.0363 77.5754C88.7805 77.5754 88.1728 78.0967 88.1728 78.3408V78.927Z" fill="#336666"/>
<path fill-rule="evenodd" clip-rule="evenodd" d="M11.5244 42.155L62.5446 52.2869L113.245 42.155L114.423 52.4996L62.5449 53.4663L10.6212 52.6579L11.5244 42.155Z" fill="white"/>
<path d="M10.9197 51.5493L58.5851 52.7913C62.481 53.4255 62.4584 53.4503 66.4114 52.7991L114.17 51.5493C114.627 51.5372 115 51.9998 115 52.5504C115 53.1013 114.627 53.5519 114.17 53.5519C98.2496 53.5519 82.3205 54.148 66.3984 54.2349C66.3113 54.8711 64.6193 55.3785 62.545 55.3785C60.4695 55.3785 58.777 54.8706 58.6913 54.234C42.7655 54.1434 26.8466 53.5519 10.9197 53.5519C10.4632 53.5519 10.0899 53.1013 10.0899 52.5504C10.0899 51.9998 10.4632 51.5375 10.9197 51.5493Z" stroke="#663300" stroke-width="0.288" stroke-miterlimit="22.9256"/>
<path fill-rule="evenodd" clip-rule="evenodd" d="M10.9197 51.5493L58.5851 52.7913C62.481 53.4255 62.4584 53.4503 66.4114 52.7991L114.17 51.5493C114.627 51.5372 115 51.9998 115 52.5504C115 53.1013 114.627 53.5519 114.17 53.5519C98.2496 53.5519 82.3205 54.148 66.3984 54.2349C66.3113 54.8711 64.6193 55.3785 62.545 55.3785C60.4695 55.3785 58.777 54.8706 58.6913 54.234C42.7655 54.1434 26.8466 53.5519 10.9197 53.5519C10.4632 53.5519 10.0899 53.1013 10.0899 52.5504C10.0899 51.9998 10.4632 51.5375 10.9197 51.5493Z" fill="#663300"/>
<path d="M62.5449 52.5589L113.967 49.8878" stroke="#ADADAD" stroke-width="0.288" stroke-miterlimit="22.9256"/>
<path d="M62.6015 52.5596L113.748 47.6642" stroke="#ADADAD" stroke-width="0.288" stroke-miterlimit="22.9256"/>
<path d="M62.6015 52.5596L113.361 43.9097" stroke="#ADADAD" stroke-width="0.288" stroke-miterlimit="22.9256"/>
<path d="M62.5449 52.5709L113.531 45.7094" stroke="#ADADAD" stroke-width="0.288" stroke-miterlimit="22.9256"/>
<path d="M62.5304 52.5702L10.9215 49.9115" stroke="#BAB6B6" stroke-width="0.288" stroke-miterlimit="22.9256"/>
<path d="M62.488 52.5596L11.1061 47.6462" stroke="#BAB6B6" stroke-width="0.288" stroke-miterlimit="22.9256"/>
<path d="M62.5304 52.5594L11.4502 43.9447" stroke="#BAB6B6" stroke-width="0.288" stroke-miterlimit="22.9256"/>
<path d="M62.5225 52.5708L11.2504 45.7632" stroke="#BAB6B6" stroke-width="0.288" stroke-miterlimit="22.9256"/>
</svg>
