<svg width="90" height="100" viewBox="0 0 90 100" fill="none" xmlns="http://www.w3.org/2000/svg">
<path d="M15.7387 33.8708C14.2097 34.3995 13.1546 35.1447 11.726 35.7244C11.2863 33.1579 10.5289 30.8191 9.7565 28.3903C9.6794 28.1398 9.54784 27.9096 9.35168 27.771C9.14248 27.6233 8.69038 27.5983 8.5427 27.8075C8.44093 27.9515 8.50128 28.1706 8.59369 28.373C9.48688 30.7692 10.3999 33.4145 10.8192 35.9271C8.39894 34.4724 7.03917 33.3748 5.53454 32.7041C5.3724 32.629 5.22357 32.7004 5.13116 32.8314C4.9557 33.08 4.94838 33.5063 5.15729 33.654C6.62195 34.4922 8.08434 35.5841 9.74487 36.5606C9.71426 36.7154 9.73521 36.907 9.89253 37.0179C10.1791 37.0831 10.3444 37.0428 10.5045 37.0383C11.6407 37.7036 12.7995 38.3652 13.9234 39.1589C14.0671 39.2604 14.2026 39.1796 14.3044 39.0356C14.4705 38.8 14.5394 38.3978 14.3432 38.2592C13.507 37.6684 12.6781 37.1222 11.8717 36.5723C13.2677 35.8715 15.038 35.2785 16.4261 34.8664C16.5375 34.8471 16.597 34.7912 16.6342 34.7388C16.7821 34.5293 16.6015 34.1469 16.3138 33.944C16.144 33.8238 15.9057 33.7733 15.7387 33.8708ZM15.623 28.3495C17.4641 30.5019 20.2546 31.8418 21.9709 30.3735C23.9674 28.6659 22.8038 26.566 21.4412 24.9732C20.1517 23.4654 16.9349 20.6166 15.0587 22.0952L14.9736 22.168C14.7616 22.1175 14.475 22.1521 14.329 22.2771C12.7827 23.5995 14.3543 26.8661 15.623 28.3495ZM15.5298 22.7446C17.5801 22.2335 19.2582 23.998 20.6103 25.5789C21.7958 26.9651 22.5557 28.5678 21.3306 29.9945C19.7713 30.9072 17.2235 28.6437 16.3294 27.598C15.2894 26.3823 14.3217 24.6838 14.9195 23.1403C15.0672 23.1403 15.2064 23.1057 15.3036 23.0224C15.4133 22.9288 15.4567 22.8072 15.5298 22.7446ZM27.3916 16.8873C27.7049 17.5889 27.9756 18.274 28.2448 18.9949C27.2516 19.4034 26.2391 19.7676 25.2132 20.103C24.9961 19.4992 24.7662 18.8656 24.4989 18.2667C24.199 17.5946 23.8466 16.9633 23.4447 16.3368C23.2749 16.1146 23.1042 16.086 22.9727 16.1447C22.7825 16.2297 22.3633 16.6268 22.4676 16.8607C22.7808 17.5617 23.2562 18.1556 23.5626 18.8424C24.2866 20.4641 24.7557 22.1822 25.4732 23.7894C25.9035 24.7535 26.4222 25.6784 27.145 26.5124C27.2522 26.6745 27.6655 26.5776 27.7528 26.5385C27.958 26.4472 28.0453 26.0926 27.9149 25.8003C27.8889 25.7419 27.8415 25.6756 27.8009 25.6234C27.2224 24.9182 26.7777 24.118 26.4058 23.2851C26.0537 22.496 25.7535 21.6666 25.4678 20.8303C26.5262 20.5681 27.5274 20.1387 28.5221 19.6945C28.8385 20.482 29.1548 21.2694 29.4941 22.0291C29.9833 23.125 30.531 24.1945 31.2479 25.171C31.3619 25.3482 31.5702 25.3425 31.7456 25.2643C32.0234 25.1401 32.4135 24.756 32.2763 24.449C31.5659 23.4872 31.0188 22.4174 30.5293 21.3216C29.7662 19.6123 29.1639 17.831 28.4073 16.1362C28.1595 15.5811 27.8906 15.0179 27.5841 14.4889C27.4569 14.2829 27.0878 14.36 26.8834 14.4512C26.6198 14.5689 26.3777 14.8521 26.4826 15.0859C26.7561 15.6993 27.1178 16.2739 27.3916 16.8873ZM38.8039 22.3043C38.7846 21.4131 38.6712 20.5392 38.5102 19.6738C38.0774 17.3457 37.3769 15.5069 36.9795 13.3676C36.9469 13.1944 36.9308 13.0183 36.9143 12.8426C37.7165 12.7748 38.5029 12.7099 39.2903 12.5636C39.8417 12.461 40.3712 12.3301 40.9021 12.1175C41.1139 12.0293 41.2411 11.6636 41.1943 11.4122C41.1711 11.2864 41.0875 11.188 40.9143 11.2203C40.2921 11.4661 39.734 11.6189 39.1667 11.7243C37.5918 12.0168 35.9712 11.9763 34.396 12.2691C33.8135 12.3774 33.2523 12.5143 32.7089 12.7456C32.433 12.9271 32.2576 13.1226 32.3128 13.4214C32.342 13.5787 32.5388 13.6723 32.7749 13.6283C33.3186 13.3973 33.9241 13.2357 34.5069 13.1275C34.9794 13.0396 35.4735 12.9803 35.952 12.9239C35.9426 13.1374 35.9834 13.3574 36.0214 13.562C36.4338 15.7798 37.2182 18.1564 37.6156 20.296C37.7503 21.0194 37.8532 21.7488 37.8387 22.549C37.8739 22.7378 38.0836 22.8129 38.3197 22.7689C38.5559 22.725 38.8005 22.5493 38.8039 22.3043ZM46.0634 17.7885C45.8508 19.1043 45.6221 20.4185 45.2918 21.8054C45.2748 22.0288 45.4123 22.1195 45.588 22.1329C45.8437 22.1524 46.1791 21.9693 46.202 21.6663C46.5524 20.4411 46.7746 19.2064 47.013 17.9733L47.6684 18.0232C47.8745 18.0546 48.031 18.115 48.2064 18.1283C48.4941 18.1502 48.7654 18.1709 49.0716 18.1621C49.1121 19.5289 48.9403 21.1526 49.9546 22.1765C49.9991 22.2281 50.0606 22.2649 50.1561 22.272C50.4597 22.2953 50.8699 21.9733 50.8903 21.7023C50.8976 21.6065 50.8707 21.5401 50.7811 21.4531C49.9509 20.7481 50.1393 19.7515 50.0668 18.1734C50.2459 18.1391 50.3355 18.0175 50.3466 17.8738C50.361 17.6825 50.2329 17.4642 50.0277 17.4163C49.7598 14.3954 49.4721 12.48 48.2399 11.1506C48.167 11.0488 48.0579 11.0086 47.9618 11.0012C47.6902 10.9805 47.4141 11.2319 47.326 11.5463C46.8064 13.3041 46.49 15.1415 46.1879 16.9956C45.8673 16.9874 45.6782 17.1495 45.6637 17.3409C45.6504 17.5163 45.7808 17.7029 46.0634 17.7885ZM48.0077 12.7215C48.645 13.8452 48.8108 15.2537 49.0169 17.4038C48.8091 17.3879 48.6001 17.3879 48.3923 17.3721C47.9612 17.3392 47.5474 17.2918 47.1516 17.2133C47.4266 15.7098 47.6526 14.2191 48.0077 12.7215ZM58.1486 12.7879C58.0083 13.3486 57.8686 13.8078 57.7081 14.2772C57.0417 16.2305 56.0567 18.0756 55.3852 20.044C55.0853 20.9222 54.8412 21.8363 54.7332 22.797C54.6912 23.07 54.9375 23.2897 55.1955 23.3775C55.4529 23.4654 55.6811 23.4419 55.7588 23.2146C55.8824 22.1578 56.1168 21.2235 56.4317 20.3C56.7163 19.4669 57.0761 18.6601 57.4057 17.8426C57.857 17.8109 58.3083 17.7278 58.7295 17.5844C59.8713 20.29 59.9928 23.307 60.3185 26.0722C60.3126 26.2394 60.4033 26.3208 60.4941 26.3519C60.7667 26.4449 61.1432 26.2352 61.2205 26.0084C61.2514 25.9174 61.2573 25.8009 61.2531 25.715C60.9178 22.8282 60.6794 19.8558 59.6382 17.2522C60.8172 16.7243 61.9465 15.9941 63.185 15.639C63.3726 15.5848 63.4899 15.4388 63.5415 15.2872C63.6141 15.0754 63.5645 14.8725 63.3222 14.7897C63.2465 14.7639 63.1354 14.7429 63.0285 14.7574C61.317 15.4581 59.4546 16.7496 57.7815 16.9395C58.0693 16.294 58.3275 15.6381 58.5545 14.972C58.7561 14.3812 58.922 13.7956 59.0478 13.1791C59.1354 12.9217 58.9194 12.662 58.6617 12.5741C58.4494 12.5016 58.2311 12.5455 58.1486 12.7879ZM66.3594 28.5505C66.9899 27.9201 67.5426 27.2338 68.0562 26.5192C69.4387 24.5964 70.2826 22.8188 71.5528 21.052C71.6557 20.9091 71.7713 20.7756 71.887 20.6421C72.4905 21.1745 73.0813 21.6977 73.7318 22.1652C74.1871 22.4926 74.6479 22.7845 75.1686 23.0209C75.3787 23.1131 75.7308 22.9521 75.8802 22.7443C75.9547 22.6405 75.9683 22.5121 75.8252 22.4092C75.2171 22.1297 74.7208 21.8321 74.2525 21.4956C72.9519 20.5605 71.8606 19.3617 70.5598 18.4265C70.0785 18.0807 69.5918 17.77 69.0484 17.5373C68.7269 17.4636 68.4642 17.4718 68.2868 17.7187C68.1935 17.8488 68.2618 18.0555 68.4569 18.1955C68.9997 18.4285 69.5351 18.7542 70.0165 19.1001C70.4065 19.3804 70.7911 19.6965 71.1631 20.0032C71.0023 20.1438 70.8714 20.3258 70.75 20.4947C69.4331 22.3262 68.2587 24.5363 66.9885 26.3032C66.5588 26.9007 66.1035 27.4796 65.5154 28.0224C65.4034 28.1783 65.4941 28.3818 65.6891 28.5219C65.8844 28.6622 66.18 28.7172 66.3594 28.5505ZM80.2948 26.7349C78.115 28.3112 75.7314 29.2937 73.6584 30.9288C72.867 31.5532 72.1747 32.3027 71.8859 33.3062C71.722 33.15 71.5367 33.1732 71.4111 33.2724C71.122 33.5004 71.2552 33.8241 71.4238 34.0378C72.9639 35.1898 75.4337 37.6491 77.3306 36.153C79.0016 34.8352 79.0314 31.6692 77.821 30.1348C77.6524 29.9208 77.4684 29.7393 77.247 29.5877C78.4214 28.9065 79.6479 28.2656 80.7651 27.4864C80.9536 27.3375 80.8855 27.0444 80.7367 26.8559C80.6177 26.7049 80.4456 26.6161 80.2948 26.7349ZM76.6693 35.5728C75.4757 36.5141 73.8644 35.0914 72.6464 34.0123C73.0061 32.8918 73.839 32.0102 74.756 31.2871C75.3342 30.8312 75.9391 30.4355 76.4938 30.0798C76.7629 30.2144 76.9795 30.4112 77.168 30.6501C78.2292 31.996 77.9756 34.5424 76.6693 35.5728ZM83.9161 31.3262C83.6924 31.4818 83.4691 31.6377 83.2554 31.8064C80.944 33.6293 79.4652 36.2239 77.2165 37.9975C76.9653 38.1957 76.704 38.381 76.37 38.6036C76.194 38.7425 76.2027 38.9602 76.3218 39.1113C76.4411 39.2621 76.6478 39.3437 76.8661 39.2329C77.1499 39.0497 77.4234 38.8544 77.6873 38.6461C79.9862 36.833 81.4451 34.2133 83.6938 32.4396C83.8948 32.2812 84.1057 32.1352 84.3169 31.9892C84.5681 31.7911 84.5397 31.5481 84.4207 31.3973C84.3115 31.259 84.1046 31.1774 83.9161 31.3262Z" fill="black"/>
<path fill-rule="evenodd" clip-rule="evenodd" d="M44.8923 89.5262C62.0132 89.5262 75.8925 75.647 75.8925 58.5262C75.8925 41.4052 62.0132 27.5262 44.8923 27.5262C27.7714 27.5262 13.8925 41.4052 13.8925 58.5262C13.8925 75.647 27.7714 89.5262 44.8923 89.5262Z" fill="white"/>
<path d="M51.3414 77.7366L54.2469 77.9396C54.1911 78.7409 53.4949 79.345 52.6927 79.2891C51.8905 79.2333 51.2856 78.538 51.3414 77.7366ZM51.4512 76.169L53.5956 74.9907L54.3567 76.372L54.2469 77.9396L51.3414 77.7366L51.4512 76.169ZM54.3567 76.372L51.4512 76.169C51.507 75.3677 52.2032 74.7636 53.0054 74.8195C53.8076 74.8753 54.4125 75.5706 54.3567 76.372ZM46.5412 74.4932L47.9246 71.9335L53.5956 74.9907L52.2122 77.5504L46.5412 74.4932ZM47.9246 71.9335L46.5412 74.4932C45.8337 74.1119 45.5696 73.2292 45.9514 72.5226C46.3332 71.8159 47.217 71.5523 47.9246 71.9335Z" fill="black"/>
<path d="M54.2506 68.0738H51.3378C51.3378 67.2708 51.99 66.6194 52.7942 66.6194C53.5984 66.6194 54.2506 67.2708 54.2506 68.0738ZM54.2506 76.2705L53.4878 77.5495L51.3378 76.2705V68.0738H54.2506V76.2705ZM51.3378 76.2705H54.2506C54.2506 77.0736 53.5984 77.725 52.7942 77.725C51.99 77.725 51.3378 77.0736 51.3378 76.2705ZM57.752 71.9343L59.1392 74.4923L53.4878 77.5495L52.1006 74.9915L57.752 71.9343ZM59.1392 74.4923L57.752 71.9343C58.4593 71.552 59.3434 71.8144 59.7263 72.5206C60.1093 73.2267 59.8465 74.1099 59.1392 74.4923Z" fill="black"/>
<path d="M37.1231 56.9468L38.9912 57.0772C38.9552 57.5922 38.5073 57.9808 37.9917 57.9448C37.4761 57.9088 37.0871 57.4618 37.1231 56.9468ZM37.1937 55.939L38.5725 55.1813L39.0618 56.0694L38.9912 57.0772L37.1231 56.9468L37.1937 55.939ZM39.0618 56.0694L37.1937 55.939C37.2297 55.424 37.6776 55.0354 38.1932 55.0714C38.7088 55.1074 39.0978 55.5544 39.0618 56.0694ZM34.0371 54.8616L34.9266 53.2158L38.5725 55.1813L37.683 56.8271L34.0371 54.8616ZM34.9266 53.2158L34.0371 54.8616C33.5821 54.6164 33.4123 54.0489 33.6578 53.5945C33.9033 53.1401 34.4717 52.9706 34.9266 53.2158Z" fill="black"/>
<path d="M38.9934 50.7343H37.1208C37.1208 50.2182 37.5401 49.7992 38.0572 49.7992C38.5742 49.7992 38.9934 50.2182 38.9934 50.7343ZM38.9934 56.0042L38.5031 56.8266L37.1208 56.0042V50.7343H38.9934V56.0042ZM37.1208 56.0042H38.9934C38.9934 56.5204 38.5742 56.9394 38.0572 56.9394C37.5401 56.9394 37.1208 56.5204 37.1208 56.0042ZM41.2447 53.2164L42.1365 54.861L38.5031 56.8266L37.6113 55.1819L41.2447 53.2164ZM42.1365 54.861L41.2447 53.2164C41.6991 52.9706 42.2677 53.1393 42.5138 53.5934C42.7598 54.0475 42.5909 54.6153 42.1365 54.861Z" fill="black"/>
<path d="M50.3082 60.0778L52.1762 60.2082C52.1402 60.7233 51.6927 61.1119 51.177 61.0759C50.6614 61.0399 50.2722 60.5929 50.3082 60.0778ZM50.3788 59.0698L51.7576 58.3121L52.2468 59.2002L52.1762 60.2082L50.3082 60.0778L50.3788 59.0698ZM52.2468 59.2002L50.3788 59.0698C50.4148 58.5548 50.8624 58.1662 51.378 58.2022C51.8936 58.2382 52.2828 58.6852 52.2468 59.2002ZM47.2222 57.9924L48.1116 56.3466L51.7576 58.3121L50.868 59.9579L47.2222 57.9924ZM48.1116 56.3466L47.2222 57.9924C46.7672 57.7472 46.5974 57.1797 46.8429 56.7253C47.0883 56.2709 47.6567 56.1014 48.1116 56.3466Z" fill="black"/>
<path d="M52.1785 53.8655H50.3059C50.3059 53.3493 50.7251 52.9303 51.2422 52.9303C51.7592 52.9303 52.1785 53.3493 52.1785 53.8655ZM52.1785 59.1351L51.6881 59.9574L50.3059 59.1351V53.8655H52.1785V59.1351ZM50.3059 59.1351H52.1785C52.1785 59.6513 51.7592 60.0702 51.2422 60.0702C50.7251 60.0702 50.3059 59.6513 50.3059 59.1351ZM54.4298 56.3472L55.3215 57.9918L51.6881 59.9574L50.7963 58.3127L54.4298 56.3472ZM55.3215 57.9918L54.4298 56.3472C54.8842 56.1014 55.4528 56.2701 55.6988 56.7242C55.9449 57.1783 55.7759 57.7461 55.3215 57.9918Z" fill="black"/>
<path d="M34.4574 76.6719L37.3629 76.8748C37.3071 77.6762 36.6109 78.2803 35.8087 78.2244C35.0065 78.1686 34.4016 77.4732 34.4574 76.6719ZM34.5671 75.1043L36.7115 73.926L37.4726 75.3073L37.3629 76.8748L34.4574 76.6719L34.5671 75.1043ZM37.4726 75.3073L34.5671 75.1043C34.6229 74.303 35.3191 73.6989 36.1213 73.7548C36.9235 73.8106 37.5285 74.5059 37.4726 75.3073ZM29.6572 73.4282L31.0405 70.8685L36.7115 73.926L35.3282 76.4856L29.6572 73.4282ZM31.0405 70.8685L29.6572 73.4282C28.9497 73.0469 28.6855 72.1642 29.0673 71.4576C29.4492 70.7509 30.333 70.4873 31.0405 70.8685Z" fill="black"/>
<path d="M37.3666 67.0088H34.4537C34.4537 66.2058 35.106 65.5544 35.9102 65.5544C36.7144 65.5544 37.3666 66.2058 37.3666 67.0088ZM37.3666 75.2058L36.6039 76.4848L34.4537 75.2058V67.0088H37.3666V75.2058ZM34.4537 75.2058H37.3666C37.3666 76.0088 36.7144 76.6602 35.9102 76.6602C35.106 76.6602 34.4537 76.0088 34.4537 75.2058ZM40.868 70.8693L42.2553 73.4273L36.6039 76.4848L35.2165 73.9268L40.868 70.8693ZM42.2553 73.4273L40.868 70.8693C41.575 70.487 42.459 70.7494 42.842 71.4555C43.225 72.1617 42.9622 73.0449 42.2553 73.4273Z" fill="black"/>
<path d="M40.8101 41.7587L41.9168 41.8363C41.8955 42.1413 41.6302 42.3711 41.3246 42.3498C41.019 42.3286 40.7888 42.0636 40.8101 41.7587ZM40.8521 41.1621L41.6687 40.7135L41.9587 41.2398L41.9168 41.8363L40.8101 41.7587L40.8521 41.1621ZM41.9587 41.2398L40.8521 41.1621C40.8733 40.8572 41.1387 40.6273 41.4442 40.6486C41.7498 40.6698 41.9799 40.9348 41.9587 41.2398ZM38.9826 40.5245L39.5093 39.5496L41.6687 40.7135L41.1421 41.6884L38.9826 40.5245ZM39.5093 39.5496L38.9826 40.5245C38.7131 40.3794 38.6124 40.043 38.7578 39.774C38.9032 39.5051 39.2398 39.4045 39.5093 39.5496Z" fill="black"/>
<path d="M41.9179 38.08H40.809C40.809 37.7742 41.0573 37.5262 41.3634 37.5262C41.6696 37.5262 41.9179 37.7742 41.9179 38.08ZM41.9179 41.2005L41.6276 41.6874L40.809 41.2005V38.08H41.9179V41.2005ZM40.809 41.2005H41.9179C41.9179 41.5063 41.6696 41.7543 41.3634 41.7543C41.0573 41.7543 40.809 41.5063 40.809 41.2005ZM43.2514 39.5497L43.7797 40.5235L41.6276 41.6874L41.0993 40.7136L43.2514 39.5497ZM43.7797 40.5235L43.2514 39.5497C43.5204 39.4041 43.8574 39.5041 44.0031 39.7728C44.1488 40.0414 44.0487 40.3778 43.7797 40.5235Z" fill="black"/>
<path d="M49.2857 42.716L50.3924 42.7931C50.3711 43.098 50.106 43.3281 49.8005 43.3069C49.4949 43.2856 49.2644 43.0209 49.2857 42.716ZM49.3274 42.1194L50.1441 41.6708L50.434 42.1965L50.3924 42.7931L49.2857 42.716L49.3274 42.1194ZM50.434 42.1965L49.3274 42.1194C49.3486 41.8145 49.6136 41.5844 49.9192 41.6056C50.2248 41.6269 50.4553 41.8916 50.434 42.1965ZM47.4582 41.4812L47.9849 40.5069L50.1441 41.6708L49.6174 42.6452L47.4582 41.4812ZM47.9849 40.5069L47.4582 41.4812C47.1887 41.3361 47.088 41 47.2334 40.7311C47.3788 40.4621 47.7153 40.3618 47.9849 40.5069Z" fill="black"/>
<path d="M50.3935 39.0368H49.2846C49.2846 38.731 49.5329 38.483 49.839 38.483C50.1452 38.483 50.3935 38.731 50.3935 39.0368ZM50.3935 42.1573L50.1032 42.6442L49.2846 42.1573V39.0368H50.3935V42.1573ZM49.2846 42.1573H50.3935C50.3935 42.4631 50.1452 42.7111 49.839 42.7111C49.5329 42.7111 49.2846 42.4631 49.2846 42.1573ZM51.7269 40.5065L52.2553 41.4803L50.1032 42.6442L49.5749 41.6704L51.7269 40.5065ZM52.2553 41.4803L51.7269 40.5065C51.9959 40.3608 52.333 40.4609 52.4787 40.7295C52.6244 40.9982 52.5243 41.3346 52.2553 41.4803Z" fill="black"/>
<path d="M49.2857 42.716L50.3924 42.7931C50.3711 43.098 50.106 43.3281 49.8005 43.3069C49.4949 43.2856 49.2644 43.0209 49.2857 42.716ZM49.3274 42.1194L50.1441 41.6708L50.434 42.1965L50.3924 42.7931L49.2857 42.716L49.3274 42.1194ZM50.434 42.1965L49.3274 42.1194C49.3486 41.8145 49.6136 41.5844 49.9192 41.6056C50.2248 41.6269 50.4553 41.8916 50.434 42.1965ZM47.4582 41.4812L47.9849 40.5069L50.1441 41.6708L49.6174 42.6452L47.4582 41.4812ZM47.9849 40.5069L47.4582 41.4812C47.1887 41.3361 47.088 41 47.2334 40.7311C47.3788 40.4621 47.7153 40.3618 47.9849 40.5069Z" fill="black"/>
<path d="M50.3935 39.0368H49.2846C49.2846 38.731 49.5329 38.483 49.839 38.483C50.1452 38.483 50.3935 38.731 50.3935 39.0368ZM50.3935 42.1573L50.1032 42.6442L49.2846 42.1573V39.0368H50.3935V42.1573ZM49.2846 42.1573H50.3935C50.3935 42.4631 50.1452 42.7111 49.839 42.7111C49.5329 42.7111 49.2846 42.4631 49.2846 42.1573ZM51.7269 40.5065L52.2553 41.4803L50.1032 42.6442L49.5749 41.6704L51.7269 40.5065ZM52.2553 41.4803L51.7269 40.5065C51.9959 40.3608 52.333 40.4609 52.4787 40.7295C52.6244 40.9982 52.5243 41.3346 52.2553 41.4803Z" fill="black"/>
</svg>
