<svg width="90" height="100" viewBox="0 0 90 100" fill="none" xmlns="http://www.w3.org/2000/svg">
<path fill-rule="evenodd" clip-rule="evenodd" d="M44.9988 89.7844C62.1197 89.7844 75.999 75.9052 75.999 58.7844C75.999 41.6634 62.1197 27.7844 44.9988 27.7844C27.8782 27.7844 13.999 41.6634 13.999 58.7844C13.999 75.9052 27.8782 89.7844 44.9988 89.7844Z" fill="white"/>
<path d="M10.0749 26.5033C11.3998 27.922 12.7169 29.213 14.0424 30.6317C14.9479 31.601 16.2042 32.5433 17.1431 33.5483C17.353 33.7729 17.5286 34.0316 17.6575 34.3354C17.8894 34.5837 18.2769 34.4297 18.5077 34.2028C18.8309 33.8851 18.3363 33.2376 18.06 32.942C17.11 31.9251 16.0121 30.963 15.0161 29.9917C13.7873 28.8185 12.86 27.8022 11.6665 26.5486C11.7593 26.4345 11.8515 26.344 11.944 26.2532C13.0169 25.198 14.4709 24.8348 15.6083 23.9433C15.8507 23.7051 15.7508 23.077 15.5079 22.817C15.3976 22.6989 15.2514 22.6609 15.1026 22.7619C13.9632 23.7463 12.3385 24.1641 11.3003 25.185C11.1269 25.3553 10.9646 25.5604 10.8249 25.7658C10.6809 25.612 10.3962 25.7336 10.1999 25.9265C10.0265 26.0968 9.92019 26.3379 10.0749 26.5033ZM24.495 28.0993C23.6497 24.9558 22.7721 21.7552 22.6845 18.4516C25.1995 20.8262 27.1667 23.8034 29.684 26.2146C29.8503 26.3814 30.0148 26.3794 30.1257 26.3144C30.3203 26.2007 30.402 25.8511 30.2598 25.5952C30.2284 25.5381 30.1964 25.4812 30.137 25.4409C27.3432 22.6638 25.1404 19.2961 22.1615 16.8159C22.0428 16.7346 21.8765 16.6998 21.7656 16.7648C21.4876 16.9273 21.6217 17.4332 21.5976 17.6546C21.6511 21.3931 22.6146 25.1464 23.6675 28.6963C23.6774 28.7468 23.687 28.7979 23.7028 28.8263C23.7818 28.9685 23.9463 28.9664 24.1129 28.8692C24.3491 28.7311 24.5815 28.3879 24.495 28.0993ZM32.1871 19.9924C32.4315 21.3333 32.6603 22.6783 32.8181 24.1284C32.8775 24.3497 33.0372 24.3892 33.2069 24.3413C33.4535 24.2717 33.7064 23.9792 33.6258 23.6793C33.5412 22.3784 33.3333 21.112 33.1413 19.8415L33.7731 19.6628C33.9776 19.6219 34.1447 19.6257 34.3139 19.5778C34.5916 19.4995 34.8531 19.4255 35.1377 19.3109C35.6368 20.6133 36.0232 22.2371 37.3212 22.8721C37.3804 22.9061 37.4505 22.9203 37.543 22.8942C37.8357 22.8115 38.112 22.3595 38.0399 22.0911C38.0144 21.9966 37.9663 21.942 37.8532 21.8892C36.8356 21.4973 36.6764 20.4723 36.0757 18.9776C36.2327 18.8824 36.2754 18.7341 36.2375 18.592C36.1866 18.4028 35.9926 18.2366 35.7839 18.2618C34.5129 15.4448 33.5964 13.6997 31.9906 12.8456C31.8885 12.7727 31.772 12.7716 31.6795 12.798C31.4176 12.872 31.2431 13.21 31.2663 13.543C31.3718 15.4157 31.6944 17.2951 32.0366 19.1856C31.7329 19.2886 31.6102 19.5102 31.6611 19.6997C31.7075 19.8732 31.893 20.0078 32.1871 19.9924ZM32.303 14.4389C33.2804 15.3006 33.9117 16.6 34.8305 18.5995C34.63 18.6561 34.4337 18.7283 34.2335 18.7852C33.8172 18.9027 33.4128 19.0005 33.0149 19.0617C32.7657 17.5185 32.4747 16.0044 32.303 14.4389ZM42.0639 11.983C41.7924 15.0395 41.7769 18.0875 41.873 21.1317C41.8832 21.4427 42.0953 21.5831 42.3187 21.5756C42.6228 21.5654 42.9666 21.3249 42.9551 20.9646C42.9087 19.4917 42.942 18.0158 42.9265 16.5092C43.2738 16.3662 43.6072 16.2899 43.9426 16.2789C45.3804 16.231 46.6468 17.352 46.6995 19.0051C46.7444 20.429 46.2656 21.985 44.7801 22.0343C44.5247 22.0427 44.2356 22.0035 43.9288 21.915C43.6078 21.8767 43.1358 22.1219 43.1477 22.4985C43.1516 22.6293 43.2514 22.7407 43.4757 22.766C43.8793 22.8837 44.2806 22.9194 44.6638 22.9067C46.8999 22.8324 47.9769 20.9779 47.915 19.0138C47.8658 17.4588 46.9243 15.9995 45.4848 15.4903C45.9639 14.9663 46.2616 14.268 46.2831 13.4319C46.2085 12.0744 45.3255 10.9572 43.9997 11.0013C43.5207 11.0172 42.0441 11.361 42.0639 11.983ZM43.0167 12.279C43.2364 12.1568 43.4904 12.0831 43.7458 12.0747C44.6403 12.0448 45.0648 12.8334 45.0894 13.6025C45.1287 14.8465 44.3816 15.4941 43.4393 15.5254C43.2956 15.5301 43.0871 15.5205 42.9423 15.4929C42.9087 14.429 42.907 13.364 43.0167 12.279ZM58.4532 15.2916C58.2474 16.0488 58.0191 16.7654 57.7672 17.5095C56.7442 17.1829 55.7346 16.8086 54.7332 16.403C54.9507 15.7856 55.1772 15.1364 55.3528 14.4897C55.5502 13.7638 55.6817 13.0365 55.7711 12.2801C55.7824 11.9943 55.6696 11.86 55.531 11.8206C55.3308 11.7631 54.7558 11.8026 54.6871 12.055C54.4815 12.8119 54.469 13.5906 54.2674 14.3321C53.7914 16.0827 53.0579 17.7431 52.5861 19.4783C52.303 20.5193 52.1124 21.5866 52.137 22.7158C52.1164 22.9139 52.4956 23.1071 52.5875 23.1335C52.8033 23.1953 53.0963 22.9731 53.182 22.6577C53.199 22.5945 53.2049 22.5112 53.2069 22.4436C53.2117 21.51 53.3791 20.5892 53.6237 19.6898C53.8554 18.838 54.1526 17.9882 54.4654 17.1428C55.4456 17.627 56.488 17.9424 57.535 18.2418C57.2768 19.0692 57.0189 19.8961 56.7957 20.7165C56.4739 21.8997 56.214 23.1002 56.143 24.3378C56.1181 24.5519 56.2813 24.6837 56.466 24.7365C56.7587 24.82 57.3028 24.7719 57.393 24.4405C57.4595 23.2185 57.7196 22.018 58.0412 20.8349C58.5429 18.9895 59.2143 17.1922 59.7115 15.3627C59.8747 14.7633 60.0265 14.1439 60.1275 13.5268C60.1612 13.281 59.8285 13.1012 59.613 13.0394C59.3362 12.9602 58.9699 13.0251 58.9012 13.2778C58.7211 13.9402 58.6334 14.6292 58.4532 15.2916ZM63.2783 22.1268C62.5144 23.2429 61.7361 24.3509 60.8354 25.48C60.7225 25.6782 60.8065 25.8233 60.9586 25.9141C61.1795 26.0464 61.5599 26.0275 61.7129 25.7588C62.561 24.7875 63.2986 23.75 64.05 22.7213L64.6165 23.0601C64.7879 23.1814 64.9019 23.3067 65.0537 23.3976C65.3023 23.5461 65.5368 23.6865 65.8153 23.8153C65.2562 25.0919 64.3942 26.51 64.8583 27.906C64.8758 27.9733 64.9151 28.0348 64.998 28.0842C65.2602 28.2411 65.7684 28.1283 65.905 27.8878C65.9533 27.8028 65.9579 27.7296 65.9155 27.6095C65.4777 26.5892 66.0809 25.7559 66.7034 24.2708C66.8793 24.3193 67.0125 24.2473 67.0852 24.12C67.1816 23.9502 67.1618 23.692 66.9983 23.5562C68.0744 20.655 68.6505 18.7629 68.1239 16.9879C68.1033 16.862 68.0227 16.7758 67.9398 16.7262C67.7048 16.5858 67.3476 16.6937 67.1312 16.9438C65.8993 18.33 64.8148 19.8801 63.7356 21.4523C63.4516 21.3014 63.2112 21.3661 63.1145 21.5358C63.0263 21.6914 63.0619 21.9214 63.2783 22.1268ZM67.2311 18.3306C67.3137 19.6501 66.8487 21.0212 66.0964 23.0926C65.9171 22.9853 65.7297 22.8919 65.5501 22.7842C65.1773 22.5614 64.8266 22.3325 64.5054 22.0836C65.4075 20.8221 66.2599 19.5505 67.2311 18.3306ZM79.9744 26.7061C80.1257 26.4696 79.5661 25.8601 79.3217 25.6237C78.1713 24.5093 75.6658 24.2224 74.4605 25.5323C73.2552 26.8422 74.146 28.358 75.1503 29.4881C73.9373 29.3491 72.859 29.1831 71.8533 29.1776C71.2176 29.0802 68.7831 29.2893 68.0657 29.4956C67.9763 29.5214 67.8982 29.5583 67.8323 29.6299C67.657 29.8203 67.6101 30.158 67.7614 30.3042C67.8309 30.3718 67.922 30.3921 68.0792 30.3645C69.34 30.189 70.7339 29.9401 72.0023 30.0428C73.021 30.1057 73.9639 30.2757 74.9619 30.4092C74.4769 30.8403 74.0267 31.2825 73.5883 31.7586C72.9854 32.4136 72.441 33.1247 72.0004 33.9141C71.9037 34.0905 71.9772 34.2971 72.1285 34.4436C72.2444 34.5559 72.5648 34.6859 72.7068 34.5312C72.7289 34.5074 72.7394 34.4723 72.7603 34.4253C73.1794 33.6597 73.7246 32.9718 74.3163 32.3289C74.7874 31.8166 79.014 27.8927 79.0245 27.8576C79.3639 27.4888 79.6699 27.1088 79.9744 26.7061ZM78.964 26.5381C77.7476 27.8599 76.956 28.6244 76.1959 29.3073C75.4145 28.4605 74.0957 27.0032 74.885 26.1459C75.8056 25.1455 77.8831 25.4914 78.964 26.5381Z" fill="black"/>
<path d="M37.5513 73.6073C37.5513 73.8452 37.363 74.0381 37.1311 74.0381C36.8992 74.0381 36.7109 73.8452 36.7109 73.6073H37.5513ZM37.5513 71.798V73.6073H36.7109V71.798L37.1311 71.3672L37.5513 71.798ZM36.7109 71.798C36.7109 71.5601 36.8992 71.3672 37.1311 71.3672C37.363 71.3672 37.5513 71.5601 37.5513 71.798H36.7109ZM39.298 72.2287H37.1311V71.3672H39.298V72.2287ZM39.298 71.3672C39.5299 71.3672 39.7183 71.5601 39.7183 71.798C39.7183 72.0358 39.5299 72.2287 39.298 72.2287V71.3672Z" fill="black"/>
<path fill-rule="evenodd" clip-rule="evenodd" d="M18.2338 59.7671C18.2338 75.0655 30.3379 87.4673 45.2694 87.4673C60.2006 87.4673 72.3048 75.0655 72.3048 59.7671C54.317 63.6417 36.2936 63.6495 18.2338 59.7671Z" fill="black" stroke="black" stroke-width="1.33304" stroke-miterlimit="22.9256"/>
<path fill-rule="evenodd" clip-rule="evenodd" d="M44.5706 68.1173C54.3377 68.1173 62.2552 60.0049 62.2552 49.9978C62.2552 39.9907 54.3377 31.8783 44.5706 31.8783C34.8038 31.8783 26.8863 39.9907 26.8863 49.9978C26.8863 60.0049 34.8038 68.1173 44.5706 68.1173Z" fill="black"/>
<path fill-rule="evenodd" clip-rule="evenodd" d="M37.1986 45.2871C37.885 45.2871 38.4416 44.7172 38.4416 44.0141C38.4416 43.311 37.885 42.7407 37.1986 42.7407C36.5123 42.7407 35.9559 43.311 35.9559 44.0141C35.9559 44.7172 36.5123 45.2871 37.1986 45.2871Z" stroke="black" stroke-width="1.11987" stroke-miterlimit="22.9256"/>
<path fill-rule="evenodd" clip-rule="evenodd" d="M37.1986 45.2871C37.885 45.2871 38.4416 44.7172 38.4416 44.0141C38.4416 43.311 37.885 42.7407 37.1986 42.7407C36.5123 42.7407 35.9559 43.311 35.9559 44.0141C35.9559 44.7172 36.5123 45.2871 37.1986 45.2871Z" fill="white"/>
<path fill-rule="evenodd" clip-rule="evenodd" d="M51.6511 45.2871C52.3374 45.2871 52.894 44.7172 52.894 44.0141C52.894 43.311 52.3374 42.7407 51.6511 42.7407C50.9647 42.7407 50.4081 43.311 50.4081 44.0141C50.4081 44.7172 50.9647 45.2871 51.6511 45.2871Z" stroke="black" stroke-width="1.11987" stroke-miterlimit="22.9256"/>
<path fill-rule="evenodd" clip-rule="evenodd" d="M51.6511 45.2871C52.3374 45.2871 52.894 44.7172 52.894 44.0141C52.894 43.311 52.3374 42.7407 51.6511 42.7407C50.9647 42.7407 50.4081 43.311 50.4081 44.0141C50.4081 44.7172 50.9647 45.2871 51.6511 45.2871Z" fill="white"/>
<path fill-rule="evenodd" clip-rule="evenodd" d="M60.4302 57.4275C58.2574 62.3204 54.0323 66.0539 48.8815 67.4741L48.9954 67.7126C54.4307 66.857 61.1197 63.8496 72.5559 59.3994C68.5123 58.3443 64.318 57.9465 60.4302 57.4275Z" fill="#808080"/>
<path fill-rule="evenodd" clip-rule="evenodd" d="M28.8423 57.6103C24.254 58.1203 20.0619 58.4949 17.9897 59.4334C27.9486 63.0651 34.5686 65.8393 39.7327 67.074C34.9159 65.4497 30.9891 62.01 28.8423 57.6103Z" fill="#808080"/>
<path fill-rule="evenodd" clip-rule="evenodd" d="M44.5706 49.9978H26.8863C26.8863 60.0049 34.8038 68.1173 44.5706 68.1173C54.3377 68.1173 62.2552 60.0049 62.2552 49.9978H44.5706Z" fill="#FF0000"/>
<path fill-rule="evenodd" clip-rule="evenodd" d="M51.651 44.4155C51.8674 44.4155 52.0427 44.2356 52.0427 44.0143C52.0427 43.7927 51.8674 43.6132 51.651 43.6132C51.4347 43.6132 51.2596 43.7927 51.2596 44.0143C51.2596 44.2356 51.4347 44.4155 51.651 44.4155Z" stroke="black" stroke-width="1.11987" stroke-miterlimit="22.9256"/>
<path fill-rule="evenodd" clip-rule="evenodd" d="M51.651 44.4155C51.8674 44.4155 52.0427 44.2356 52.0427 44.0143C52.0427 43.7927 51.8674 43.6132 51.651 43.6132C51.4347 43.6132 51.2596 43.7927 51.2596 44.0143C51.2596 44.2356 51.4347 44.4155 51.651 44.4155Z" fill="white"/>
<path fill-rule="evenodd" clip-rule="evenodd" d="M37.1987 44.4155C37.415 44.4155 37.5903 44.2356 37.5903 44.0143C37.5903 43.7927 37.415 43.6132 37.1987 43.6132C36.9826 43.6132 36.8073 43.7927 36.8073 44.0143C36.8073 44.2356 36.9826 44.4155 37.1987 44.4155Z" stroke="black" stroke-width="1.11987" stroke-miterlimit="22.9256"/>
<path fill-rule="evenodd" clip-rule="evenodd" d="M37.1987 44.4155C37.415 44.4155 37.5903 44.2356 37.5903 44.0143C37.5903 43.7927 37.415 43.6132 37.1987 43.6132C36.9826 43.6132 36.8073 43.7927 36.8073 44.0143C36.8073 44.2356 36.9826 44.4155 37.1987 44.4155Z" fill="white"/>
<path fill-rule="evenodd" clip-rule="evenodd" d="M44.5706 47.817L46.2768 46.5524L47.9827 45.2877H44.5706H41.1588L42.8647 46.5524L44.5706 47.817Z" fill="#4D4D4D"/>
<path d="M39.3553 66.237C39.4574 66.0235 39.7094 65.9353 39.9178 66.0398C40.1262 66.1442 40.2125 66.4024 40.1104 66.6159L39.3553 66.237ZM37.0071 71.1447L39.3553 66.237L40.1104 66.6159L37.7623 71.5236V71.5239L37.0071 71.1447ZM37.7623 71.5236C37.6602 71.7372 37.4082 71.8254 37.1998 71.7209C36.9913 71.6165 36.9051 71.3583 37.0071 71.1447L37.7623 71.5236ZM36.7852 71.6084L37.0071 71.1444L37.7623 71.5239L37.5403 71.9878L37.1627 72.2289L36.7852 71.6084ZM37.5403 71.9878C37.4382 72.2014 37.1862 72.2896 36.9778 72.1848C36.7693 72.0801 36.6831 71.8219 36.7852 71.6084L37.5403 71.9878ZM35.202 71.3673H37.1627V72.2289H35.202V71.3673ZM35.202 72.2289C34.9701 72.2289 34.7817 72.036 34.7817 71.7981C34.7817 71.5602 34.9701 71.3673 35.202 71.3673V72.2289Z" fill="black"/>
<path d="M49.0719 66.237L48.3167 66.6159C48.2146 66.4024 48.3009 66.1442 48.5093 66.0398C48.7178 65.9353 48.9698 66.0235 49.0719 66.237ZM51.4197 71.1447L50.6646 71.5239V71.5236L48.3167 66.6159L49.0719 66.237L51.4197 71.1447ZM50.6646 71.5236L51.4197 71.1447C51.5218 71.3583 51.4355 71.6165 51.2271 71.7209C51.0187 71.8254 50.7667 71.7372 50.6646 71.5236ZM51.6417 71.6084L51.2642 72.2289L50.8866 71.9878L50.6646 71.5239L51.4197 71.1444L51.6417 71.6084ZM50.8866 71.9878L51.6417 71.6084C51.7438 71.8219 51.6575 72.0801 51.4491 72.1848C51.2407 72.2896 50.9887 72.2014 50.8866 71.9878ZM53.2252 71.3673V72.2289H51.2642V71.3673H53.2252ZM53.2252 72.2289V71.3673C53.4571 71.3673 53.6454 71.5602 53.6454 71.7981C53.6454 72.036 53.4571 72.2289 53.2252 72.2289Z" fill="black"/>
<path d="M50.8759 73.6073H51.7164C51.7164 73.8452 51.528 74.0381 51.2961 74.0381C51.0642 74.0381 50.8759 73.8452 50.8759 73.6073ZM50.8759 71.798L51.2961 71.3672L51.7164 71.798V73.6073H50.8759V71.798ZM51.7164 71.798H50.8759C50.8759 71.5601 51.0642 71.3672 51.2961 71.3672C51.528 71.3672 51.7164 71.5601 51.7164 71.798ZM49.129 72.2287V71.3672H51.2961V72.2287H49.129ZM49.129 71.3672V72.2287C48.8971 72.2287 48.7087 72.0358 48.7087 71.798C48.7087 71.5601 48.8971 71.3672 49.129 71.3672Z" fill="black"/>
<path d="M37.5513 73.6073C37.5513 73.8452 37.363 74.0381 37.1311 74.0381C36.8992 74.0381 36.7109 73.8452 36.7109 73.6073H37.5513ZM37.5513 71.798V73.6073H36.7109V71.798L37.1311 71.3672L37.5513 71.798ZM36.7109 71.798C36.7109 71.5601 36.8992 71.3672 37.1311 71.3672C37.363 71.3672 37.5513 71.5601 37.5513 71.798H36.7109ZM39.298 72.2287H37.1311V71.3672H39.298V72.2287ZM39.298 71.3672C39.5299 71.3672 39.7183 71.5601 39.7183 71.798C39.7183 72.0358 39.5299 72.2287 39.298 72.2287V71.3672Z" fill="black"/>
<path fill-rule="evenodd" clip-rule="evenodd" d="M18.2338 59.7671C18.2338 75.0655 30.3379 87.4673 45.2694 87.4673C60.2006 87.4673 72.3048 75.0655 72.3048 59.7671C54.317 63.6417 36.2936 63.6495 18.2338 59.7671Z" fill="black" stroke="black" stroke-width="1.33304" stroke-miterlimit="22.9256"/>
</svg>
