<svg width="724" height="78" viewBox="0 0 724 78" fill="none" xmlns="http://www.w3.org/2000/svg">
<path fill-rule="evenodd" clip-rule="evenodd" d="M235.937 45.5816C237.948 47.3249 240.404 48.6854 243.236 49.5132C254.175 52.7102 269.516 47.5403 270.92 36.2223C274.038 11.0937 251.874 14.4665 248.838 14.5049C243.986 -9.86958 216.708 1.16386 217.174 13.6324C206.253 12.7616 196.028 17.4629 192.665 25.6096C188.624 35.3962 196.014 46.447 209.171 50.2923C219.224 53.2303 229.735 51.111 235.937 45.5816Z" fill="white"/>
<path fill-rule="evenodd" clip-rule="evenodd" d="M36.1948 73.0781C37.8344 74.5001 39.8378 75.6097 42.1477 76.2848C51.0697 78.8924 63.5823 74.6759 64.7275 65.4445C67.2706 44.9492 49.1928 47.7003 46.7166 47.7317C42.7595 27.8514 20.5112 36.8503 20.8912 47.0201C11.9837 46.3097 3.64433 50.1441 0.901015 56.7888C-2.39448 64.7708 3.63299 73.784 14.3638 76.9203C22.5634 79.3168 31.1362 77.588 36.1948 73.0781Z" fill="white"/>
<path fill-rule="evenodd" clip-rule="evenodd" d="M691.273 55.6932C689.79 56.9791 687.979 57.9823 685.891 58.5925C677.823 60.9503 666.51 57.1377 665.474 48.7911C663.175 30.2593 679.52 32.747 681.759 32.7752C685.337 14.7997 705.454 22.9364 705.11 32.1317C713.164 31.4893 720.705 34.9566 723.185 40.9646C726.165 48.1818 720.715 56.3316 711.012 59.1671C703.598 61.334 695.847 59.771 691.273 55.6932Z" fill="white"/>
</svg>
