<svg width="962" height="317" viewBox="0 0 962 317" fill="none" xmlns="http://www.w3.org/2000/svg">
<path fill-rule="evenodd" clip-rule="evenodd" d="M480.97 0C746.602 0 961.94 70.8262 961.94 158.195C961.94 245.564 746.602 316.39 480.97 316.39C215.338 316.39 0 245.564 0 158.195C0 70.8262 215.338 0 480.97 0Z" fill="#E0FFF0"/>
<path fill-rule="evenodd" clip-rule="evenodd" d="M472.024 2.0639C627.179 2.0639 752.957 57.6579 752.957 126.237C752.957 194.815 627.179 250.409 472.024 250.409C316.87 250.409 191.092 194.815 191.092 126.237C191.092 57.6579 316.87 2.0639 472.024 2.0639Z" fill="#BAF2D5"/>
<path fill-rule="evenodd" clip-rule="evenodd" d="M472.764 27.8767C591.159 27.8767 687.138 70.2992 687.138 122.63C687.138 174.961 591.159 217.384 472.764 217.384C354.369 217.384 258.39 174.961 258.39 122.63C258.39 70.2992 354.369 27.8767 472.764 27.8767Z" fill="#8CDBB2"/>
</svg>
