<svg width="243" height="667" viewBox="0 0 243 667" fill="none" xmlns="http://www.w3.org/2000/svg">
<path fill-rule="evenodd" clip-rule="evenodd" d="M0 0C17.7528 88.5685 25.1707 127.132 43.9081 203.85C47.1275 217.03 123.917 174.161 145.185 169.563C148.51 168.844 96.618 207.535 62.8039 235.438C60.5997 237.257 191.282 175.255 188.666 176.583C163.95 189.133 62.8039 252.433 62.8039 271.226C62.8033 341.165 77.0747 619.338 77.0747 667H0V574.523V0Z" fill="#522B02"/>
<path fill-rule="evenodd" clip-rule="evenodd" d="M151.747 187.719C151.47 192.885 152.421 198.077 154.758 202.989C163.788 221.961 190.058 229.554 213.434 219.947C236.81 210.341 248.44 187.173 239.41 168.201C237.68 164.566 235.315 161.351 232.461 158.592C239.444 149.724 241.191 137.452 235.908 126.353C228.169 110.093 208.277 102.508 191.479 109.411C187.21 111.165 183.554 113.687 180.598 116.739C167.695 101.169 146.372 94.605 128.299 102.032C106.589 110.954 97.794 136.684 108.654 159.502C116.953 176.938 134.327 187.626 151.747 187.719Z" fill="#006633"/>
<path fill-rule="evenodd" clip-rule="evenodd" d="M206.241 206.235C207.778 206.768 209.433 206.983 211.126 206.811C217.668 206.147 222.307 199.966 221.488 193.007C220.669 186.048 214.702 180.946 208.161 181.61C206.907 181.737 205.724 182.068 204.636 182.567C202.578 179.953 199.024 178.402 195.197 178.791C189.59 179.36 185.522 183.876 186.111 188.877C186.26 190.148 186.697 191.327 187.355 192.371C181.497 194.35 177.61 199.331 178.243 204.711C179.004 211.175 185.998 215.766 193.866 214.967C199.877 214.356 204.659 210.774 206.241 206.235Z" fill="#669966"/>
<path fill-rule="evenodd" clip-rule="evenodd" d="M214.223 129.177C214.539 127.68 214.497 126.128 214.038 124.604C212.264 118.716 204.944 115.472 197.689 117.359C190.434 119.247 185.991 125.55 187.765 131.438C188.105 132.566 188.648 133.597 189.356 134.513C186.917 136.827 185.851 140.338 186.888 143.783C188.409 148.83 193.868 151.822 199.081 150.465C200.406 150.121 201.587 149.528 202.588 148.754C205.646 153.801 211.569 156.551 217.178 155.092C223.916 153.339 227.649 146.178 225.515 139.096C223.885 133.684 219.301 129.886 214.223 129.177Z" fill="#669966"/>
<path fill-rule="evenodd" clip-rule="evenodd" d="M130.335 125.931C128.706 126.115 127.131 126.633 125.713 127.51C120.236 130.9 119.181 138.371 123.358 144.197C127.534 150.024 135.359 152 140.836 148.61C141.886 147.961 142.772 147.161 143.491 146.253C146.613 147.692 150.537 147.548 153.741 145.565C158.435 142.66 159.808 136.91 156.806 132.723C156.044 131.659 155.072 130.799 153.97 130.155C158.189 125.89 159.17 119.806 155.941 115.301C152.063 109.89 143.579 108.807 136.992 112.884C131.958 115.999 129.489 121.225 130.335 125.931Z" fill="#669966"/>
</svg>
