<svg width="220" height="660" viewBox="0 0 220 660" fill="none" xmlns="http://www.w3.org/2000/svg">
<path fill-rule="evenodd" clip-rule="evenodd" d="M68.9271 261.524H130.702C130.694 257.309 132.338 251.48 141.47 251.48C151.507 251.48 152.06 257.057 152.238 261.524H214.012C217.306 261.524 220 263.172 220 265.186V302.135C220 304.149 217.306 305.796 214.012 305.796H68.9271C65.6335 305.796 62.939 304.149 62.939 302.135V265.186C62.939 263.172 65.6335 261.524 68.9271 261.524ZM136.437 261.524H146.502C149.486 260.478 148.942 253.566 141.47 253.566C133.932 253.566 133.13 260.364 136.437 261.524Z" fill="#522C03"/>
<path fill-rule="evenodd" clip-rule="evenodd" d="M78.4975 268.52H204.442C209.77 268.52 214.129 273.015 214.129 278.51V288.5C214.129 293.995 209.77 298.49 204.442 298.49H78.4975C73.169 298.49 68.8097 293.995 68.8097 288.5V278.51C68.8097 273.015 73.169 268.52 78.4975 268.52Z" fill="white"/>
<path d="M142.594 253.657C143.321 234.959 143.792 222.952 143.792 206.143" stroke="#868A86" stroke-width="0.3" stroke-miterlimit="22.9256" stroke-linecap="round" stroke-linejoin="round"/>
<path d="M141.362 204.708C140.635 221.642 140.656 238.433 140.656 253.657" stroke="#727872" stroke-width="0.3" stroke-miterlimit="22.9256" stroke-linecap="round" stroke-linejoin="round"/>
<path fill-rule="evenodd" clip-rule="evenodd" d="M0 0C15.8492 87.639 22.4716 125.798 39.1999 201.711C42.074 214.753 110.629 172.333 129.617 167.783C132.585 167.072 86.2577 205.357 56.0695 232.968C54.1016 234.767 170.771 173.416 168.436 174.73C146.37 187.148 56.0695 249.784 56.0695 268.379C56.069 337.585 68.81 612.838 68.81 660L0.604989 659.999L0 568.493V0Z" fill="#522B02"/>
<path fill-rule="evenodd" clip-rule="evenodd" d="M135.475 185.749C135.228 190.86 136.077 195.999 138.164 200.859C146.225 219.632 169.679 227.144 190.548 217.639C211.417 208.133 221.8 185.209 213.738 166.436C212.194 162.839 210.082 159.657 207.534 156.928C213.768 148.153 215.328 136.01 210.611 125.027C203.702 108.937 185.944 101.432 170.947 108.263C167.136 109.998 163.871 112.494 161.233 115.514C149.713 100.107 130.676 93.6121 114.542 100.961C95.1597 109.789 87.3075 135.25 97.0033 157.828C104.412 175.081 119.923 185.657 135.475 185.749Z" fill="#006633"/>
<path fill-rule="evenodd" clip-rule="evenodd" d="M184.126 204.071C185.498 204.598 186.976 204.811 188.487 204.641C194.327 203.983 198.469 197.868 197.738 190.982C197.007 184.096 191.68 179.047 185.84 179.704C184.721 179.83 183.665 180.157 182.693 180.651C180.856 178.064 177.682 176.53 174.266 176.914C169.261 177.478 165.629 181.946 166.154 186.895C166.288 188.153 166.677 189.319 167.265 190.352C162.035 192.311 158.565 197.239 159.13 202.563C159.809 208.958 166.054 213.502 173.078 212.711C178.444 212.106 182.713 208.562 184.126 204.071Z" fill="#669966"/>
<path fill-rule="evenodd" clip-rule="evenodd" d="M191.252 127.821C191.534 126.34 191.496 124.805 191.086 123.296C189.503 117.47 182.968 114.26 176.491 116.128C170.014 117.995 166.047 124.232 167.631 130.059C167.934 131.175 168.42 132.195 169.052 133.102C166.874 135.391 165.922 138.865 166.848 142.274C168.206 147.268 173.079 150.228 177.734 148.886C178.917 148.545 179.971 147.959 180.864 147.193C183.595 152.187 188.883 154.908 193.89 153.464C199.905 151.73 203.238 144.643 201.333 137.636C199.878 132.281 195.786 128.523 191.252 127.821Z" fill="#669966"/>
<path fill-rule="evenodd" clip-rule="evenodd" d="M116.359 124.609C114.905 124.792 113.499 125.304 112.233 126.172C107.343 129.526 106.402 136.919 110.13 142.684C113.858 148.449 120.845 150.405 125.734 147.051C126.671 146.408 127.463 145.617 128.104 144.718C130.892 146.142 134.395 145.999 137.256 144.037C141.446 141.162 142.672 135.473 139.992 131.33C139.311 130.277 138.444 129.426 137.46 128.789C141.226 124.569 142.102 118.549 139.22 114.091C135.757 108.737 128.183 107.666 122.302 111.699C117.809 114.782 115.604 119.952 116.359 124.609Z" fill="#669966"/>
</svg>
