<svg width="24" height="28" viewBox="0 0 24 28" fill="none" xmlns="http://www.w3.org/2000/svg">
<path fill-rule="evenodd" clip-rule="evenodd" d="M11.9466 27.3832C18.1927 27.3832 23.2565 22.3259 23.2565 16.0871C23.2565 9.84863 18.1927 4.79138 11.9466 4.79138C5.70019 4.79138 0.636658 9.84863 0.636658 16.0871C0.636658 22.3259 5.70019 27.3832 11.9466 27.3832Z" fill="black"/>
<path fill-rule="evenodd" clip-rule="evenodd" d="M7.2317 13.1504C7.67078 13.1504 8.02661 12.7953 8.02661 12.3568C8.02661 11.9184 7.67078 11.563 7.2317 11.563C6.79289 11.563 6.43689 11.9184 6.43689 12.3568C6.43689 12.7953 6.79289 13.1504 7.2317 13.1504Z" stroke="black" stroke-width="0.713574" stroke-miterlimit="22.9256"/>
<path fill-rule="evenodd" clip-rule="evenodd" d="M7.2317 13.1504C7.67078 13.1504 8.02661 12.7953 8.02661 12.3568C8.02661 11.9184 7.67078 11.563 7.2317 11.563C6.79289 11.563 6.43689 11.9184 6.43689 12.3568C6.43689 12.7953 6.79289 13.1504 7.2317 13.1504Z" fill="white"/>
<path fill-rule="evenodd" clip-rule="evenodd" d="M16.4747 13.1504C16.9138 13.1504 17.2695 12.7953 17.2695 12.3568C17.2695 11.9184 16.9138 11.563 16.4747 11.563C16.0356 11.563 15.6799 11.9184 15.6799 12.3568C15.6799 12.7953 16.0356 13.1504 16.4747 13.1504Z" stroke="black" stroke-width="0.713574" stroke-miterlimit="22.9256"/>
<path fill-rule="evenodd" clip-rule="evenodd" d="M16.4747 13.1504C16.9138 13.1504 17.2695 12.7953 17.2695 12.3568C17.2695 11.9184 16.9138 11.563 16.4747 11.563C16.0356 11.563 15.6799 11.9184 15.6799 12.3568C15.6799 12.7953 16.0356 13.1504 16.4747 13.1504Z" fill="white"/>
<path fill-rule="evenodd" clip-rule="evenodd" d="M16.4747 12.6069C16.613 12.6069 16.7253 12.4949 16.7253 12.3569C16.7253 12.2189 16.613 12.1067 16.4747 12.1067C16.3363 12.1067 16.2244 12.2189 16.2244 12.3569C16.2244 12.4949 16.3363 12.6069 16.4747 12.6069Z" stroke="black" stroke-width="0.713574" stroke-miterlimit="22.9256"/>
<path fill-rule="evenodd" clip-rule="evenodd" d="M16.4747 12.6069C16.613 12.6069 16.7253 12.4949 16.7253 12.3569C16.7253 12.2189 16.613 12.1067 16.4747 12.1067C16.3363 12.1067 16.2244 12.2189 16.2244 12.3569C16.2244 12.4949 16.3363 12.6069 16.4747 12.6069Z" fill="white"/>
<path fill-rule="evenodd" clip-rule="evenodd" d="M7.23169 12.6069C7.37002 12.6069 7.48227 12.4949 7.48227 12.3569C7.48227 12.2189 7.37002 12.1067 7.23169 12.1067C7.09336 12.1067 6.98145 12.2189 6.98145 12.3569C6.98145 12.4949 7.09336 12.6069 7.23169 12.6069Z" stroke="black" stroke-width="0.713574" stroke-miterlimit="22.9256"/>
<path fill-rule="evenodd" clip-rule="evenodd" d="M7.23169 12.6069C7.37002 12.6069 7.48227 12.4949 7.48227 12.3569C7.48227 12.2189 7.37002 12.1067 7.23169 12.1067C7.09336 12.1067 6.98145 12.2189 6.98145 12.3569C6.98145 12.4949 7.09336 12.6069 7.23169 12.6069Z" fill="white"/>
<path fill-rule="evenodd" clip-rule="evenodd" d="M11.9467 14.7278L13.0377 13.9394L14.1288 13.1507H11.9467H9.76459L10.8556 13.9394L11.9467 14.7278Z" fill="#FF6600"/>
<path d="M9.61913 1.74214L11.5382 4.64394L11.0914 4.93876L9.17234 2.0369L9.5579 1.67692L9.61913 1.74214ZM9.17234 2.0369L8.30157 0.720227L9.5579 1.67692L9.17234 2.0369ZM11.7844 4.04468L9.23357 2.10212L9.5579 1.67692L12.1087 3.61948L12.1082 4.04529L11.7844 4.04468ZM12.1082 4.04529L11.9461 4.16776L11.7844 4.04468L12.1082 4.04529ZM14.6801 2.10267L12.1082 4.04529L11.7851 3.61893L14.3569 1.67637L14.7399 2.04005L14.6801 2.10267ZM14.3569 1.67637L15.6569 0.694427L14.7399 2.04005L14.3569 1.67637ZM12.3193 4.64084L14.2971 1.73898L14.7399 2.04005L12.7622 4.94186L12.5408 5.05868L12.3193 4.64084ZM12.7622 4.94186L12.6825 5.05868H12.5408L12.7622 4.94186ZM11.3148 4.52402H12.5408V5.05868H11.3148L11.0914 4.93876L11.3148 4.52402ZM11.3148 5.05868H11.1708L11.0914 4.93876L11.3148 5.05868Z" fill="black"/>
<path fill-rule="evenodd" clip-rule="evenodd" d="M11.3148 4.79072L9.39569 1.88953L11.9466 3.83164L14.5185 1.88953L12.5408 4.79072H11.3148Z" fill="black"/>
<path fill-rule="evenodd" clip-rule="evenodd" d="M3.91774 14.3049C4.68281 14.3049 5.30306 13.6856 5.30306 12.9216C5.30306 12.1575 4.68281 11.5384 3.91774 11.5384C3.15267 11.5384 2.53253 12.1575 2.53253 12.9216C2.53253 13.6856 3.15267 14.3049 3.91774 14.3049Z" stroke="black" stroke-width="0.713574" stroke-miterlimit="22.9256"/>
<path fill-rule="evenodd" clip-rule="evenodd" d="M3.91774 14.3049C4.68281 14.3049 5.30306 13.6856 5.30306 12.9216C5.30306 12.1575 4.68281 11.5384 3.91774 11.5384C3.15267 11.5384 2.53253 12.1575 2.53253 12.9216C2.53253 13.6856 3.15267 14.3049 3.91774 14.3049Z" fill="white"/>
<path fill-rule="evenodd" clip-rule="evenodd" d="M19.9591 14.3049C20.7242 14.3049 21.3443 13.6856 21.3443 12.9216C21.3443 12.1575 20.7242 11.5384 19.9591 11.5384C19.194 11.5384 18.5738 12.1575 18.5738 12.9216C18.5738 13.6856 19.194 14.3049 19.9591 14.3049Z" stroke="black" stroke-width="0.713574" stroke-miterlimit="22.9256"/>
<path fill-rule="evenodd" clip-rule="evenodd" d="M19.9591 14.3049C20.7242 14.3049 21.3443 13.6856 21.3443 12.9216C21.3443 12.1575 20.7242 11.5384 19.9591 11.5384C19.194 11.5384 18.5738 12.1575 18.5738 12.9216C18.5738 13.6856 19.194 14.3049 19.9591 14.3049Z" fill="white"/>
<path fill-rule="evenodd" clip-rule="evenodd" d="M11.9467 16.118H2.14282C2.14282 22.3565 6.53225 27.4141 11.9467 27.4141C17.3612 27.4141 21.7502 22.3565 21.7502 16.118H11.9467Z" fill="#FFFFCC"/>
</svg>
