<svg width="23" height="24" viewBox="0 0 23 24" fill="none" xmlns="http://www.w3.org/2000/svg">
<path fill-rule="evenodd" clip-rule="evenodd" d="M11.5696 23.1952C17.816 23.1952 22.8795 18.1379 22.8795 11.8994C22.8795 5.66063 17.816 0.603333 11.5696 0.603333C5.32342 0.603333 0.259613 5.66063 0.259613 11.8994C0.259613 18.1379 5.32342 23.1952 11.5696 23.1952Z" fill="black"/>
<path fill-rule="evenodd" clip-rule="evenodd" d="M6.85499 8.96259C7.29379 8.96259 7.64982 8.60722 7.64982 8.1688C7.64982 7.73038 7.29379 7.375 6.85499 7.375C6.4159 7.375 6.06015 7.73038 6.06015 8.1688C6.06015 8.60722 6.4159 8.96259 6.85499 8.96259Z" stroke="black" stroke-width="0.713574" stroke-miterlimit="22.9256"/>
<path fill-rule="evenodd" clip-rule="evenodd" d="M6.85499 8.96259C7.29379 8.96259 7.64982 8.60722 7.64982 8.1688C7.64982 7.73038 7.29379 7.375 6.85499 7.375C6.4159 7.375 6.06015 7.73038 6.06015 8.1688C6.06015 8.60722 6.4159 8.96259 6.85499 8.96259Z" fill="white"/>
<path fill-rule="evenodd" clip-rule="evenodd" d="M16.0976 8.96259C16.5367 8.96259 16.8924 8.60722 16.8924 8.1688C16.8924 7.73038 16.5367 7.375 16.0976 7.375C15.6588 7.375 15.3028 7.73038 15.3028 8.1688C15.3028 8.60722 15.6588 8.96259 16.0976 8.96259Z" stroke="black" stroke-width="0.713574" stroke-miterlimit="22.9256"/>
<path fill-rule="evenodd" clip-rule="evenodd" d="M16.0976 8.96259C16.5367 8.96259 16.8924 8.60722 16.8924 8.1688C16.8924 7.73038 16.5367 7.375 16.0976 7.375C15.6588 7.375 15.3028 7.73038 15.3028 8.1688C15.3028 8.60722 15.6588 8.96259 16.0976 8.96259Z" fill="white"/>
<path fill-rule="evenodd" clip-rule="evenodd" d="M11.5696 11.8994H0.259613C0.259613 18.1378 5.32342 23.1951 11.5696 23.1951C17.816 23.1951 22.8795 18.1378 22.8795 11.8994H11.5696Z" fill="#FF0000"/>
<path fill-rule="evenodd" clip-rule="evenodd" d="M16.0976 8.41888C16.2359 8.41888 16.3482 8.30693 16.3482 8.16891C16.3482 8.0309 16.2359 7.91895 16.0976 7.91895C15.9593 7.91895 15.8473 8.0309 15.8473 8.16891C15.8473 8.30693 15.9593 8.41888 16.0976 8.41888Z" stroke="black" stroke-width="0.713574" stroke-miterlimit="22.9256"/>
<path fill-rule="evenodd" clip-rule="evenodd" d="M16.0976 8.41888C16.2359 8.41888 16.3482 8.30693 16.3482 8.16891C16.3482 8.0309 16.2359 7.91895 16.0976 7.91895C15.9593 7.91895 15.8473 8.0309 15.8473 8.16891C15.8473 8.30693 15.9593 8.41888 16.0976 8.41888Z" fill="white"/>
<path fill-rule="evenodd" clip-rule="evenodd" d="M6.85499 8.41888C6.99332 8.41888 7.10528 8.30693 7.10528 8.16891C7.10528 8.0309 6.99332 7.91895 6.85499 7.91895C6.71665 7.91895 6.6044 8.0309 6.6044 8.16891C6.6044 8.30693 6.71665 8.41888 6.85499 8.41888Z" stroke="black" stroke-width="0.713574" stroke-miterlimit="22.9256"/>
<path fill-rule="evenodd" clip-rule="evenodd" d="M6.85499 8.41888C6.99332 8.41888 7.10528 8.30693 7.10528 8.16891C7.10528 8.0309 6.99332 7.91895 6.85499 7.91895C6.71665 7.91895 6.6044 8.0309 6.6044 8.16891C6.6044 8.30693 6.71665 8.41888 6.85499 8.41888Z" fill="white"/>
<path fill-rule="evenodd" clip-rule="evenodd" d="M11.5696 10.5399L12.6606 9.75144L13.7517 8.96301H11.5696H9.38745L10.4785 9.75144L11.5696 10.5399Z" fill="#4D4D4D"/>
</svg>
