<svg width="182" height="116" viewBox="0 0 182 116" fill="none" xmlns="http://www.w3.org/2000/svg">
<path fill-rule="evenodd" clip-rule="evenodd" d="M88.7981 94.9182C111.591 94.9182 130.069 99.6377 130.069 105.459C130.069 111.281 111.591 116 88.7981 116C66.0048 116 47.5272 111.281 47.5272 105.459C47.5272 99.6377 66.0048 94.9182 88.7981 94.9182Z" fill="#666666" fill-opacity="0.490196"/>
<path fill-rule="evenodd" clip-rule="evenodd" d="M155.283 55.2559L182 58.3379C181.994 58.3052 181.988 58.273 181.982 58.2406C179.947 47.5783 166.343 37.5989 151.598 35.9506C136.852 34.3021 126.548 41.6091 128.583 52.2711L155.283 55.2559Z" fill="#1A1A1A"/>
<path fill-rule="evenodd" clip-rule="evenodd" d="M36.1795 63.7256L29.6802 89.8399C29.6517 89.8228 29.6236 89.8057 29.5955 89.7887C20.3338 84.1373 15.7737 67.8871 19.4099 53.493C23.0461 39.0989 33.5019 32.0115 42.7633 37.6628L36.1795 63.7256Z" fill="#1A1A1A"/>
<path fill-rule="evenodd" clip-rule="evenodd" d="M87.0941 103.244C115.621 103.244 138.746 80.1323 138.746 51.6224C138.746 23.1124 115.621 0.000488281 87.0941 0.000488281C58.5676 0.000488281 35.4421 23.1124 35.4421 51.6224C35.4421 80.1323 58.5676 103.244 87.0941 103.244Z" fill="black"/>
<path fill-rule="evenodd" clip-rule="evenodd" d="M65.5623 38.2032C67.5672 38.2032 69.1922 36.5791 69.1922 34.5754C69.1922 32.5717 67.5672 30.9474 65.5623 30.9474C63.5574 30.9474 61.9321 32.5717 61.9321 34.5754C61.9321 36.5791 63.5574 38.2032 65.5623 38.2032Z" stroke="black" stroke-width="1.76126" stroke-miterlimit="22.9256"/>
<path fill-rule="evenodd" clip-rule="evenodd" d="M65.5623 38.2032C67.5672 38.2032 69.1922 36.5791 69.1922 34.5754C69.1922 32.5717 67.5672 30.9474 65.5623 30.9474C63.5574 30.9474 61.9321 32.5717 61.9321 34.5754C61.9321 36.5791 63.5574 38.2032 65.5623 38.2032Z" fill="white"/>
<path fill-rule="evenodd" clip-rule="evenodd" d="M107.774 38.2032C109.778 38.2032 111.404 36.5791 111.404 34.5754C111.404 32.5717 109.778 30.9474 107.774 30.9474C105.769 30.9474 104.144 32.5717 104.144 34.5754C104.144 36.5791 105.769 38.2032 107.774 38.2032Z" stroke="black" stroke-width="1.76126" stroke-miterlimit="22.9256"/>
<path fill-rule="evenodd" clip-rule="evenodd" d="M107.774 38.2032C109.778 38.2032 111.404 36.5791 111.404 34.5754C111.404 32.5717 109.778 30.9474 107.774 30.9474C105.769 30.9474 104.144 32.5717 104.144 34.5754C104.144 36.5791 105.769 38.2032 107.774 38.2032Z" fill="white"/>
<path fill-rule="evenodd" clip-rule="evenodd" d="M87.1418 51.8479H50.9289C50.9289 80.3577 67.1421 103.47 87.1418 103.47C107.142 103.47 123.355 80.3577 123.355 51.8479H87.1418Z" fill="white"/>
<path fill-rule="evenodd" clip-rule="evenodd" d="M107.774 35.7178C108.405 35.7178 108.917 35.2063 108.917 34.5751C108.917 33.944 108.405 33.4322 107.774 33.4322C107.142 33.4322 106.63 33.944 106.63 34.5751C106.63 35.2063 107.142 35.7178 107.774 35.7178Z" stroke="black" stroke-width="1.76164" stroke-miterlimit="22.9256"/>
<path fill-rule="evenodd" clip-rule="evenodd" d="M107.774 35.7178C108.405 35.7178 108.917 35.2063 108.917 34.5751C108.917 33.944 108.405 33.4322 107.774 33.4322C107.142 33.4322 106.63 33.944 106.63 34.5751C106.63 35.2063 107.142 35.7178 107.774 35.7178Z" fill="white"/>
<path fill-rule="evenodd" clip-rule="evenodd" d="M65.5623 35.7178C66.194 35.7178 66.7059 35.2063 66.7059 34.5751C66.7059 33.944 66.194 33.4322 65.5623 33.4322C64.9305 33.4322 64.4187 33.944 64.4187 34.5751C64.4187 35.2063 64.9305 35.7178 65.5623 35.7178Z" stroke="black" stroke-width="1.76164" stroke-miterlimit="22.9256"/>
<path fill-rule="evenodd" clip-rule="evenodd" d="M65.5623 35.7178C66.194 35.7178 66.7059 35.2063 66.7059 34.5751C66.7059 33.944 66.194 33.4322 65.5623 33.4322C64.9305 33.4322 64.4187 33.944 64.4187 34.5751C64.4187 35.2063 64.9305 35.7178 65.5623 35.7178Z" fill="white"/>
<path fill-rule="evenodd" clip-rule="evenodd" d="M87.0941 45.4111L92.0767 41.8073L97.0597 38.2031H87.0941H77.1285L82.1111 41.8073L87.0941 45.4111Z" fill="#FF6600"/>
<path fill-rule="evenodd" clip-rule="evenodd" d="M108.208 105.212C113.712 105.212 118.174 104.063 118.174 102.645C118.174 101.228 113.712 100.078 108.208 100.078C102.704 100.078 98.2425 101.228 98.2425 102.645C98.2425 104.063 102.704 105.212 108.208 105.212Z" fill="#FF9900"/>
<path fill-rule="evenodd" clip-rule="evenodd" d="M64.6728 105.236C70.1767 105.236 74.6384 104.086 74.6384 102.669C74.6384 101.251 70.1767 100.102 64.6728 100.102C59.1686 100.102 54.7069 101.251 54.7069 102.669C54.7069 104.086 59.1686 105.236 64.6728 105.236Z" fill="#FF9900"/>
<path d="M40.0667 105.907C40.6123 104.006 40.9127 101.89 40.9127 99.5595C40.9127 88.935 32.9819 80.3219 23.1984 80.3219C13.415 80.3219 5.48413 88.935 5.48413 99.5595C5.48413 101.831 5.76975 103.899 6.28953 105.763" stroke="black" stroke-width="5.33329" stroke-miterlimit="22.9256"/>
<path fill-rule="evenodd" clip-rule="evenodd" d="M7.21143 106.243V99.4696C4.33318 99.4696 2 102.502 2 106.243C2 109.984 4.33318 113.017 7.21143 113.017V106.243Z" fill="#CCFFCC" stroke="black" stroke-width="2.66683" stroke-miterlimit="22.9256"/>
<path fill-rule="evenodd" clip-rule="evenodd" d="M38.914 106.243V113.017C41.7923 113.017 44.1255 109.984 44.1255 106.243C44.1255 102.502 41.7923 99.4696 38.914 99.4696V106.243Z" fill="#CCFFCC" stroke="black" stroke-width="2.66683" stroke-miterlimit="22.9256"/>
</svg>
