<svg width="75" height="56" viewBox="0 0 75 56" fill="none" xmlns="http://www.w3.org/2000/svg">
<path fill-rule="evenodd" clip-rule="evenodd" d="M37.2634 38.7234C47.1996 38.7234 55.2545 42.4793 55.2545 47.1126C55.2545 51.7455 47.1996 55.5014 37.2634 55.5014C27.3268 55.5014 19.2719 51.7455 19.2719 47.1126C19.2719 42.4793 27.3268 38.7234 37.2634 38.7234Z" fill="#666666" fill-opacity="0.490196"/>
<path d="M31.2267 39.5083C31.4745 39.1778 32.0896 39.0395 32.6001 39.1999C33.1106 39.3604 33.3238 39.7589 33.076 40.0894L31.2267 39.5083ZM26.8911 45.295L31.2267 39.5083L33.076 40.0894L28.7405 45.8761L26.8911 45.295ZM28.7405 45.8761C28.4927 46.2066 27.8776 46.345 27.3671 46.1845C26.8565 46.0241 26.6434 45.6255 26.8911 45.295L28.7405 45.8761ZM26.4812 45.8421L26.8911 45.295L28.7405 45.8761L28.3306 46.4232L27.4059 46.7982L26.4812 45.8421ZM28.3306 46.4232C28.0828 46.7537 27.4677 46.892 26.9572 46.7316C26.4467 46.5711 26.2335 46.1726 26.4812 45.8421L28.3306 46.4232ZM23.7852 45.4671H27.4059V46.7982H23.7852V45.4671ZM23.7852 46.7982C23.2177 46.7982 22.7574 46.5 22.7574 46.1326C22.7574 45.7653 23.2177 45.4671 23.7852 45.4671V46.7982Z" fill="black"/>
<path d="M28.1194 49.6538C28.1194 50.121 27.7735 50.5 27.3472 50.5C26.9209 50.5 26.575 50.121 26.575 49.6538H28.1194ZM28.1194 46.0796V49.6538H26.575V46.0796L27.3472 45.2335L28.1194 46.0796ZM26.575 46.0796C26.575 45.6125 26.9209 45.2335 27.3472 45.2335C27.7735 45.2335 28.1194 45.6125 28.1194 46.0796H26.575ZM31.3486 46.9258H27.3472V45.2335H31.3486V46.9258ZM31.3486 45.2335C31.7749 45.2335 32.1208 45.6125 32.1208 46.0796C32.1208 46.5468 31.7749 46.9258 31.3486 46.9258V45.2335Z" fill="black"/>
<path d="M43.3 39.5083L41.4507 40.0894C41.2029 39.7589 41.4161 39.3604 41.9266 39.1999C42.4372 39.0395 43.0523 39.1778 43.3 39.5083ZM47.6356 45.295L45.7863 45.8761L41.4507 40.0894L43.3 39.5083L47.6356 45.295ZM45.7863 45.8761L47.6356 45.295C47.8834 45.6255 47.6702 46.0241 47.1597 46.1845C46.6491 46.345 46.034 46.2066 45.7863 45.8761ZM48.0455 45.8421L47.1209 46.7982L46.1962 46.4232L45.7863 45.8761L47.6356 45.295L48.0455 45.8421ZM46.1962 46.4232L48.0455 45.8421C48.2932 46.1726 48.0801 46.5711 47.5696 46.7316C47.0591 46.892 46.4439 46.7537 46.1962 46.4232ZM50.7416 45.4671V46.7982H47.1209V45.4671H50.7416ZM50.7416 46.7982V45.4671C51.309 45.4671 51.7694 45.7653 51.7694 46.1326C51.7694 46.5 51.309 46.7982 50.7416 46.7982Z" fill="black"/>
<path d="M46.4074 49.6538H47.9516C47.9516 50.121 47.6059 50.5 47.1795 50.5C46.7532 50.5 46.4074 50.121 46.4074 49.6538ZM46.4074 46.0796L47.1795 45.2335L47.9516 46.0796V49.6538H46.4074V46.0796ZM47.9516 46.0796H46.4074C46.4074 45.6125 46.7532 45.2335 47.1795 45.2335C47.6059 45.2335 47.9516 45.6125 47.9516 46.0796ZM43.1781 46.9258V45.2335H47.1795V46.9258H43.1781ZM43.1781 45.2335V46.9258C42.7518 46.9258 42.406 46.5468 42.406 46.0796C42.406 45.6125 42.7518 45.2335 43.1781 45.2335Z" fill="black"/>
<path fill-rule="evenodd" clip-rule="evenodd" d="M37.2634 42.928C47.1996 42.928 55.2545 34.883 55.2545 24.9592C55.2545 15.0351 47.1996 6.99008 37.2634 6.99008C27.3271 6.99008 19.2722 15.0351 19.2722 24.9592C19.2722 34.883 27.3271 42.928 37.2634 42.928Z" fill="black"/>
<path fill-rule="evenodd" clip-rule="evenodd" d="M29.7635 20.2875C30.4619 20.2875 31.028 19.7223 31.028 19.0249C31.028 18.3277 30.4619 17.7624 29.7635 17.7624C29.0653 17.7624 28.4993 18.3277 28.4993 19.0249C28.4993 19.7223 29.0653 20.2875 29.7635 20.2875Z" stroke="black" stroke-width="1.13688" stroke-miterlimit="22.9256"/>
<path fill-rule="evenodd" clip-rule="evenodd" d="M29.7635 20.2875C30.4619 20.2875 31.028 19.7223 31.028 19.0249C31.028 18.3277 30.4619 17.7624 29.7635 17.7624C29.0653 17.7624 28.4993 18.3277 28.4993 19.0249C28.4993 19.7223 29.0653 20.2875 29.7635 20.2875Z" fill="white"/>
<path fill-rule="evenodd" clip-rule="evenodd" d="M44.4665 20.2875C45.1649 20.2875 45.731 19.7223 45.731 19.0249C45.731 18.3277 45.1649 17.7624 44.4665 17.7624C43.7683 17.7624 43.202 18.3277 43.202 19.0249C43.202 19.7223 43.7683 20.2875 44.4665 20.2875Z" stroke="black" stroke-width="1.13688" stroke-miterlimit="22.9256"/>
<path fill-rule="evenodd" clip-rule="evenodd" d="M44.4665 20.2875C45.1649 20.2875 45.731 19.7223 45.731 19.0249C45.731 18.3277 45.1649 17.7624 44.4665 17.7624C43.7683 17.7624 43.202 18.3277 43.202 19.0249C43.202 19.7223 43.7683 20.2875 44.4665 20.2875Z" fill="white"/>
<path fill-rule="evenodd" clip-rule="evenodd" d="M44.4665 19.423C44.6865 19.423 44.8648 19.2447 44.8648 19.0251C44.8648 18.8055 44.6865 18.6272 44.4665 18.6272C44.2465 18.6272 44.0682 18.8055 44.0682 19.0251C44.0682 19.2447 44.2465 19.423 44.4665 19.423Z" stroke="black" stroke-width="1.13688" stroke-miterlimit="22.9256"/>
<path fill-rule="evenodd" clip-rule="evenodd" d="M44.4665 19.423C44.6865 19.423 44.8648 19.2447 44.8648 19.0251C44.8648 18.8055 44.6865 18.6272 44.4665 18.6272C44.2465 18.6272 44.0682 18.8055 44.0682 19.0251C44.0682 19.2447 44.2465 19.423 44.4665 19.423Z" fill="white"/>
<path fill-rule="evenodd" clip-rule="evenodd" d="M29.7635 19.423C29.9837 19.423 30.1621 19.2447 30.1621 19.0251C30.1621 18.8055 29.9837 18.6272 29.7635 18.6272C29.5435 18.6272 29.3652 18.8055 29.3652 19.0251C29.3652 19.2447 29.5435 19.423 29.7635 19.423Z" stroke="black" stroke-width="1.13688" stroke-miterlimit="22.9256"/>
<path fill-rule="evenodd" clip-rule="evenodd" d="M29.7635 19.423C29.9837 19.423 30.1621 19.2447 30.1621 19.0251C30.1621 18.8055 29.9837 18.6272 29.7635 18.6272C29.5435 18.6272 29.3652 18.8055 29.3652 19.0251C29.3652 19.2447 29.5435 19.423 29.7635 19.423Z" fill="white"/>
<path fill-rule="evenodd" clip-rule="evenodd" d="M29.7635 19.423C29.9837 19.423 30.1621 19.2447 30.1621 19.0251C30.1621 18.8055 29.9837 18.6272 29.7635 18.6272C29.5435 18.6272 29.3652 18.8055 29.3652 19.0251C29.3652 19.2447 29.5435 19.423 29.7635 19.423Z" stroke="black" stroke-width="1.13688" stroke-miterlimit="22.9256"/>
<path fill-rule="evenodd" clip-rule="evenodd" d="M29.7635 19.423C29.9837 19.423 30.1621 19.2447 30.1621 19.0251C30.1621 18.8055 29.9837 18.6272 29.7635 18.6272C29.5435 18.6272 29.3652 18.8055 29.3652 19.0251C29.3652 19.2447 29.5435 19.423 29.7635 19.423Z" fill="white"/>
<path d="M33.5613 2.13946L36.6142 6.75539L35.9027 7.22483L32.8498 2.60889L33.4641 2.03571L33.5613 2.13946ZM32.8498 2.60889L31.4628 0.511807L33.4641 2.03571L32.8498 2.60889ZM37.0048 5.80269L32.9471 2.71265L33.4641 2.03571L37.5219 5.12575L37.5205 5.80379L37.0048 5.80269ZM37.5205 5.80379L37.2622 5.99884L37.0048 5.80269L37.5205 5.80379ZM41.6117 2.71375L37.5205 5.80379L37.0063 5.12464L41.0975 2.0346L41.7069 2.61371L41.6117 2.71375ZM41.0975 2.0346L43.1671 0.471558L41.7069 2.61371L41.0975 2.0346ZM37.8561 6.75058L41.0023 2.13464L41.7069 2.61371L38.5608 7.22964L38.2084 7.41589L37.8561 6.75058ZM38.5608 7.22964L38.4338 7.41589H38.2084L38.5608 7.22964ZM36.2585 6.56433H38.2084V7.41589H36.2585L35.9027 7.22483L36.2585 6.56433ZM36.2585 7.41589H36.0291L35.9027 7.22483L36.2585 7.41589Z" fill="black"/>
<path fill-rule="evenodd" clip-rule="evenodd" d="M36.2585 6.99011L33.2056 2.37418L37.2634 5.46422L41.3546 2.37418L38.2084 6.99011H36.2585Z" fill="black"/>
<path fill-rule="evenodd" clip-rule="evenodd" d="M24.4919 22.1249C25.7088 22.1249 26.6955 21.1396 26.6955 19.9241C26.6955 18.7086 25.7088 17.7232 24.4919 17.7232C23.2749 17.7232 22.2882 18.7086 22.2882 19.9241C22.2882 21.1396 23.2749 22.1249 24.4919 22.1249Z" stroke="black" stroke-width="1.13688" stroke-miterlimit="22.9256"/>
<path fill-rule="evenodd" clip-rule="evenodd" d="M24.4919 22.1249C25.7088 22.1249 26.6955 21.1396 26.6955 19.9241C26.6955 18.7086 25.7088 17.7232 24.4919 17.7232C23.2749 17.7232 22.2882 18.7086 22.2882 19.9241C22.2882 21.1396 23.2749 22.1249 24.4919 22.1249Z" fill="white"/>
<path fill-rule="evenodd" clip-rule="evenodd" d="M50.009 22.1249C51.2259 22.1249 52.2127 21.1396 52.2127 19.9241C52.2127 18.7086 51.2259 17.7232 50.009 17.7232C48.7918 17.7232 47.8054 18.7086 47.8054 19.9241C47.8054 21.1396 48.7918 22.1249 50.009 22.1249Z" stroke="black" stroke-width="1.13688" stroke-miterlimit="22.9256"/>
<path fill-rule="evenodd" clip-rule="evenodd" d="M50.009 22.1249C51.2259 22.1249 52.2127 21.1396 52.2127 19.9241C52.2127 18.7086 51.2259 17.7232 50.009 17.7232C48.7918 17.7232 47.8054 18.7086 47.8054 19.9241C47.8054 21.1396 48.7918 22.1249 50.009 22.1249Z" fill="white"/>
<path fill-rule="evenodd" clip-rule="evenodd" d="M37.2634 25.008H21.6683C21.6683 34.9321 28.6506 42.9771 37.2634 42.9771C45.8765 42.9771 52.8587 34.9321 52.8587 25.008H37.2634Z" fill="#FFFFCC"/>
<path fill-rule="evenodd" clip-rule="evenodd" d="M7.05174 26.6625L7.69806 30.7955L74.5018 20.3498L73.8558 16.2169L7.05174 26.6625Z" fill="#FF0000"/>
<path fill-rule="evenodd" clip-rule="evenodd" d="M0.0249329 29.7961L3.87551 30.3036L7.69378 30.8149L7.36721 28.7353L7.05767 26.6677L3.53336 28.2396L0.0249329 29.7961Z" fill="#999999"/>
<path fill-rule="evenodd" clip-rule="evenodd" d="M0.0379791 29.798L1.22825 29.9519L2.41853 30.1058L2.3125 29.4651L2.2062 28.8242L1.12195 29.3112L0.0379791 29.798Z" fill="black"/>
<path fill-rule="evenodd" clip-rule="evenodd" d="M7.28136 28.0833L7.37008 28.8619L74.271 18.9206L74.1778 18.1872L7.28136 28.0833Z" fill="#850707"/>
<path d="M7.53336 29.7994L74.37 19.5453" stroke="black" stroke-width="0.288" stroke-miterlimit="22.9256"/>
<path d="M7.17676 27.3858L74.0037 17.1546" stroke="black" stroke-width="0.288" stroke-miterlimit="22.9256"/>
<path fill-rule="evenodd" clip-rule="evenodd" d="M37.2634 22.7964L38.999 21.5423L40.7347 20.288H37.2634H33.7923L35.5277 21.5423L37.2634 22.7964Z" fill="#FF6600"/>
</svg>
