<svg width="96" height="69" viewBox="0 0 96 69" fill="none" xmlns="http://www.w3.org/2000/svg">
<path fill-rule="evenodd" clip-rule="evenodd" d="M46.8471 47.7555C63.6524 47.7555 77.2759 52.5112 77.2759 58.3778C77.2759 64.2443 63.6524 69 46.8471 69C30.0418 69 16.4184 64.2443 16.4184 58.3778C16.4184 52.5112 30.0418 47.7555 46.8471 47.7555Z" fill="#666666" fill-opacity="0.490196"/>
<path d="M37.9629 48.8638C38.3212 48.3851 39.2106 48.1855 39.949 48.4176C40.6874 48.6498 40.9954 49.2264 40.637 49.7051L37.9629 48.8638ZM31.692 57.2414L37.9629 48.8638L40.637 49.7051L34.3662 58.0827L31.692 57.2414ZM34.3662 58.0827C34.0079 58.5615 33.1185 58.761 32.3801 58.5289C31.6417 58.2968 31.3337 57.7201 31.692 57.2414L34.3662 58.0827ZM31.0992 58.0335L31.692 57.2414L34.3662 58.0827L33.7734 58.8748L32.4363 59.4178L31.0992 58.0335ZM33.7734 58.8748C33.4154 59.3535 32.526 59.5534 31.7876 59.3213C31.0492 59.0891 30.7412 58.5122 31.0992 58.0335L33.7734 58.8748ZM27.1994 57.4905H32.4363V59.4178H27.1994V57.4905ZM27.1994 59.4178C26.3787 59.4178 25.713 58.9861 25.713 58.4541C25.713 57.9222 26.3787 57.4905 27.1994 57.4905V59.4178Z" fill="black"/>
<path d="M33.468 63.5521C33.468 64.2285 32.9677 64.7771 32.3512 64.7771C31.7347 64.7771 31.2344 64.2285 31.2344 63.5521H33.468ZM33.468 58.3774V63.5521H31.2344V58.3774L32.3512 57.1525L33.468 58.3774ZM31.2344 58.3774C31.2344 57.7011 31.7347 57.1525 32.3512 57.1525C32.9677 57.1525 33.468 57.7011 33.468 58.3774H31.2344ZM38.1388 59.6024H32.3512V57.1525H38.1388V59.6024ZM38.1388 57.1525C38.7553 57.1525 39.2556 57.7011 39.2556 58.3774C39.2556 59.0537 38.7553 59.6024 38.1388 59.6024V57.1525Z" fill="black"/>
<path d="M55.4237 48.8638L52.7495 49.7051C52.3912 49.2264 52.6992 48.6498 53.4376 48.4176C54.176 48.1855 55.0654 48.3851 55.4237 48.8638ZM61.6946 57.2414L59.0204 58.0827L52.7495 49.7051L55.4237 48.8638L61.6946 57.2414ZM59.0204 58.0827L61.6946 57.2414C62.0529 57.7201 61.7449 58.2968 61.0065 58.5289C60.2681 58.761 59.3787 58.5615 59.0204 58.0827ZM62.2873 58.0335L60.9502 59.4178L59.6131 58.8748L59.0204 58.0827L61.6946 57.2414L62.2873 58.0335ZM59.6131 58.8748L62.2873 58.0335C62.6454 58.5122 62.3374 59.0891 61.599 59.3213C60.8606 59.5534 59.9712 59.3535 59.6131 58.8748ZM66.1872 57.4905V59.4178H60.9502V57.4905H66.1872ZM66.1872 59.4178V57.4905C67.0079 57.4905 67.6736 57.9222 67.6736 58.4541C67.6736 58.9861 67.0079 59.4178 66.1872 59.4178Z" fill="black"/>
<path d="M59.9186 63.5521H62.1521C62.1521 64.2285 61.6519 64.7771 61.0354 64.7771C60.4188 64.7771 59.9186 64.2285 59.9186 63.5521ZM59.9186 58.3774L61.0354 57.1525L62.1521 58.3774V63.5521H59.9186V58.3774ZM62.1521 58.3774H59.9186C59.9186 57.7011 60.4188 57.1525 61.0354 57.1525C61.6519 57.1525 62.1521 57.7011 62.1521 58.3774ZM55.2478 59.6024V57.1525H61.0354V59.6024H55.2478ZM55.2478 57.1525V59.6024C54.6313 59.6024 54.131 59.0537 54.131 58.3774C54.131 57.7011 54.6313 57.1525 55.2478 57.1525Z" fill="black"/>
<path fill-rule="evenodd" clip-rule="evenodd" d="M46.3118 53.0459C60.9629 53.0459 72.8404 41.1713 72.8404 26.5229C72.8404 11.8747 60.9629 3.05176e-05 46.3118 3.05176e-05C31.6603 3.05176e-05 19.7832 11.8747 19.7832 26.5229C19.7832 41.1713 31.6603 53.0459 46.3118 53.0459Z" fill="black"/>
<path fill-rule="evenodd" clip-rule="evenodd" d="M35.2531 19.6275C36.2827 19.6275 37.1173 18.7931 37.1173 17.7637C37.1173 16.7346 36.2827 15.9003 35.2531 15.9003C34.2234 15.9003 33.3885 16.7346 33.3885 17.7637C33.3885 18.7931 34.2234 19.6275 35.2531 19.6275Z" stroke="black" stroke-width="1.67924" stroke-miterlimit="22.9256"/>
<path fill-rule="evenodd" clip-rule="evenodd" d="M35.2531 19.6275C36.2827 19.6275 37.1173 18.7931 37.1173 17.7637C37.1173 16.7346 36.2827 15.9003 35.2531 15.9003C34.2234 15.9003 33.3885 16.7346 33.3885 17.7637C33.3885 18.7931 34.2234 19.6275 35.2531 19.6275Z" fill="white"/>
<path fill-rule="evenodd" clip-rule="evenodd" d="M56.9327 19.6275C57.9624 19.6275 58.7973 18.7931 58.7973 17.7637C58.7973 16.7346 57.9624 15.9003 56.9327 15.9003C55.9031 15.9003 55.0685 16.7346 55.0685 17.7637C55.0685 18.7931 55.9031 19.6275 56.9327 19.6275Z" stroke="black" stroke-width="1.67924" stroke-miterlimit="22.9256"/>
<path fill-rule="evenodd" clip-rule="evenodd" d="M56.9327 19.6275C57.9624 19.6275 58.7973 18.7931 58.7973 17.7637C58.7973 16.7346 57.9624 15.9003 56.9327 15.9003C55.9031 15.9003 55.0685 16.7346 55.0685 17.7637C55.0685 18.7931 55.9031 19.6275 56.9327 19.6275Z" fill="white"/>
<path fill-rule="evenodd" clip-rule="evenodd" d="M46.3118 26.5229H19.7832C19.7832 41.1713 31.6603 53.0459 46.3118 53.0459C60.9629 53.0459 72.8404 41.1713 72.8404 26.5229H46.3118Z" fill="#FF0000"/>
<path fill-rule="evenodd" clip-rule="evenodd" d="M56.9327 18.3513C57.2574 18.3513 57.5204 18.0884 57.5204 17.764C57.5204 17.44 57.2574 17.177 56.9327 17.177C56.6084 17.177 56.3454 17.44 56.3454 17.764C56.3454 18.0884 56.6084 18.3513 56.9327 18.3513Z" stroke="black" stroke-width="1.67924" stroke-miterlimit="22.9256"/>
<path fill-rule="evenodd" clip-rule="evenodd" d="M56.9327 18.3513C57.2574 18.3513 57.5204 18.0884 57.5204 17.764C57.5204 17.44 57.2574 17.177 56.9327 17.177C56.6084 17.177 56.3454 17.44 56.3454 17.764C56.3454 18.0884 56.6084 18.3513 56.9327 18.3513Z" fill="white"/>
<path fill-rule="evenodd" clip-rule="evenodd" d="M35.2531 18.3513C35.5774 18.3513 35.8405 18.0884 35.8405 17.764C35.8405 17.44 35.5774 17.177 35.2531 17.177C34.9287 17.177 34.6657 17.44 34.6657 17.764C34.6657 18.0884 34.9287 18.3513 35.2531 18.3513Z" stroke="black" stroke-width="1.67924" stroke-miterlimit="22.9256"/>
<path fill-rule="evenodd" clip-rule="evenodd" d="M35.2531 18.3513C35.5774 18.3513 35.8405 18.0884 35.8405 17.764C35.8405 17.44 35.5774 17.177 35.2531 17.177C34.9287 17.177 34.6657 17.44 34.6657 17.764C34.6657 18.0884 34.9287 18.3513 35.2531 18.3513Z" fill="white"/>
<path fill-rule="evenodd" clip-rule="evenodd" d="M2.31019 21.7583H93.6901V28.2672L46.8471 25.0124L2.31019 28.2672V21.7583Z" fill="white"/>
<path fill-rule="evenodd" clip-rule="evenodd" d="M2.31019 21.7583C3.58592 21.7583 4.62042 23.2151 4.62042 25.0124C4.62042 26.8101 3.58592 28.2669 2.31019 28.2669C1.03447 28.2669 -7.62939e-06 26.8101 -7.62939e-06 25.0124C-7.62939e-06 23.2151 1.03447 21.7583 2.31019 21.7583Z" fill="#E6E6E6"/>
<path fill-rule="evenodd" clip-rule="evenodd" d="M93.6901 21.7583C94.9658 21.7583 96 23.2151 96 25.0124C96 26.8101 94.9658 28.2669 93.6901 28.2669C92.4141 28.2669 91.3799 26.8101 91.3799 25.0124C91.3799 23.2151 92.4141 21.7583 93.6901 21.7583Z" fill="white"/>
<path fill-rule="evenodd" clip-rule="evenodd" d="M2.06106 22.1093C3.19906 22.1093 4.12212 23.4089 4.12212 25.0124C4.12212 26.6161 3.19906 27.9158 2.06106 27.9158C0.922775 27.9158 -7.62939e-06 26.6161 -7.62939e-06 25.0124C-7.62939e-06 23.4089 0.922775 22.1093 2.06106 22.1093Z" fill="#CCCCCC"/>
<path fill-rule="evenodd" clip-rule="evenodd" d="M1.58791 23.3318C2.46517 23.3318 3.17614 24.3334 3.17614 25.5691C3.17614 26.8045 2.46517 27.8061 1.58791 27.8061C0.710942 27.8061 -7.62939e-06 26.8045 -7.62939e-06 25.5691C-7.62939e-06 24.3334 0.710942 23.3318 1.58791 23.3318Z" fill="#B3B3B3"/>
<path fill-rule="evenodd" clip-rule="evenodd" d="M1.5879 23.956C2.22024 23.956 2.73297 24.678 2.73297 25.5687C2.73297 26.4593 2.22024 27.1814 1.5879 27.1814C0.955549 27.1814 0.442848 26.4593 0.442848 25.5687C0.442848 24.678 0.955549 23.956 1.5879 23.956Z" fill="#999999"/>
<path fill-rule="evenodd" clip-rule="evenodd" d="M46.3118 23.3309L48.8709 21.4796L51.4303 19.6283H46.3118H41.1933L43.7527 21.4796L46.3118 23.3309Z" fill="#4D4D4D"/>
</svg>
